<?xml version="1.0" encoding="utf-8" standalone="no"?>
<!DOCTYPE svg PUBLIC "-//W3C//DTD SVG 1.1//EN"
  "http://www.w3.org/Graphics/SVG/1.1/DTD/svg11.dtd">
<!-- Created with matplotlib (https://matplotlib.org/) -->
<svg height="180.65625pt" version="1.1" viewBox="0 0 231.442188 180.65625" width="231.442188pt" xmlns="http://www.w3.org/2000/svg" xmlns:xlink="http://www.w3.org/1999/xlink">
 <metadata>
  <rdf:RDF xmlns:cc="http://creativecommons.org/ns#" xmlns:dc="http://purl.org/dc/elements/1.1/" xmlns:rdf="http://www.w3.org/1999/02/22-rdf-syntax-ns#">
   <cc:Work>
    <dc:type rdf:resource="http://purl.org/dc/dcmitype/StillImage"/>
    <dc:date>2021-07-13T18:54:37.001025</dc:date>
    <dc:format>image/svg+xml</dc:format>
    <dc:creator>
     <cc:Agent>
      <dc:title>Matplotlib v3.3.2, https://matplotlib.org/</dc:title>
     </cc:Agent>
    </dc:creator>
   </cc:Work>
  </rdf:RDF>
 </metadata>
 <defs>
  <style type="text/css">*{stroke-linecap:butt;stroke-linejoin:round;}</style>
 </defs>
 <g id="figure_1">
  <g id="patch_1">
   <path d="M 0 180.65625 
L 231.442188 180.65625 
L 231.442188 0 
L 0 0 
z
" style="fill:none;"/>
  </g>
  <g id="axes_1">
   <g id="patch_2">
    <path d="M 28.942188 143.1 
L 224.242188 143.1 
L 224.242188 7.2 
L 28.942188 7.2 
z
" style="fill:#ffffff;"/>
   </g>
   <g id="matplotlib.axis_1">
    <g id="xtick_1">
     <g id="line2d_1">
      <defs>
       <path d="M 0 0 
L 0 3.5 
" id="m83eecc3d98" style="stroke:#000000;stroke-width:0.8;"/>
      </defs>
      <g>
       <use style="stroke:#000000;stroke-width:0.8;" x="74.715625" xlink:href="#m83eecc3d98" y="143.1"/>
      </g>
     </g>
     <g id="text_1">
      <!-- −4 -->
      <g transform="translate(67.344531 157.698438)scale(0.1 -0.1)">
       <defs>
        <path d="M 10.59375 35.5 
L 73.1875 35.5 
L 73.1875 27.203125 
L 10.59375 27.203125 
z
" id="DejaVuSans-8722"/>
        <path d="M 37.796875 64.3125 
L 12.890625 25.390625 
L 37.796875 25.390625 
z
M 35.203125 72.90625 
L 47.609375 72.90625 
L 47.609375 25.390625 
L 58.015625 25.390625 
L 58.015625 17.1875 
L 47.609375 17.1875 
L 47.609375 0 
L 37.796875 0 
L 37.796875 17.1875 
L 4.890625 17.1875 
L 4.890625 26.703125 
z
" id="DejaVuSans-52"/>
       </defs>
       <use xlink:href="#DejaVuSans-8722"/>
       <use x="83.789062" xlink:href="#DejaVuSans-52"/>
      </g>
     </g>
    </g>
    <g id="xtick_2">
     <g id="line2d_2">
      <g>
       <use style="stroke:#000000;stroke-width:0.8;" x="135.746875" xlink:href="#m83eecc3d98" y="143.1"/>
      </g>
     </g>
     <g id="text_2">
      <!-- −2 -->
      <g transform="translate(128.375781 157.698438)scale(0.1 -0.1)">
       <defs>
        <path d="M 19.1875 8.296875 
L 53.609375 8.296875 
L 53.609375 0 
L 7.328125 0 
L 7.328125 8.296875 
Q 12.9375 14.109375 22.625 23.890625 
Q 32.328125 33.6875 34.8125 36.53125 
Q 39.546875 41.84375 41.421875 45.53125 
Q 43.3125 49.21875 43.3125 52.78125 
Q 43.3125 58.59375 39.234375 62.25 
Q 35.15625 65.921875 28.609375 65.921875 
Q 23.96875 65.921875 18.8125 64.3125 
Q 13.671875 62.703125 7.8125 59.421875 
L 7.8125 69.390625 
Q 13.765625 71.78125 18.9375 73 
Q 24.125 74.21875 28.421875 74.21875 
Q 39.75 74.21875 46.484375 68.546875 
Q 53.21875 62.890625 53.21875 53.421875 
Q 53.21875 48.921875 51.53125 44.890625 
Q 49.859375 40.875 45.40625 35.40625 
Q 44.1875 33.984375 37.640625 27.21875 
Q 31.109375 20.453125 19.1875 8.296875 
z
" id="DejaVuSans-50"/>
       </defs>
       <use xlink:href="#DejaVuSans-8722"/>
       <use x="83.789062" xlink:href="#DejaVuSans-50"/>
      </g>
     </g>
    </g>
    <g id="xtick_3">
     <g id="line2d_3">
      <g>
       <use style="stroke:#000000;stroke-width:0.8;" x="196.778125" xlink:href="#m83eecc3d98" y="143.1"/>
      </g>
     </g>
     <g id="text_3">
      <!-- 0 -->
      <g transform="translate(193.596875 157.698438)scale(0.1 -0.1)">
       <defs>
        <path d="M 31.78125 66.40625 
Q 24.171875 66.40625 20.328125 58.90625 
Q 16.5 51.421875 16.5 36.375 
Q 16.5 21.390625 20.328125 13.890625 
Q 24.171875 6.390625 31.78125 6.390625 
Q 39.453125 6.390625 43.28125 13.890625 
Q 47.125 21.390625 47.125 36.375 
Q 47.125 51.421875 43.28125 58.90625 
Q 39.453125 66.40625 31.78125 66.40625 
z
M 31.78125 74.21875 
Q 44.046875 74.21875 50.515625 64.515625 
Q 56.984375 54.828125 56.984375 36.375 
Q 56.984375 17.96875 50.515625 8.265625 
Q 44.046875 -1.421875 31.78125 -1.421875 
Q 19.53125 -1.421875 13.0625 8.265625 
Q 6.59375 17.96875 6.59375 36.375 
Q 6.59375 54.828125 13.0625 64.515625 
Q 19.53125 74.21875 31.78125 74.21875 
z
" id="DejaVuSans-48"/>
       </defs>
       <use xlink:href="#DejaVuSans-48"/>
      </g>
     </g>
    </g>
    <g id="text_4">
     <!-- y1 -->
     <g transform="translate(120.451563 171.376563)scale(0.1 -0.1)">
      <defs>
       <path d="M 32.171875 -5.078125 
Q 28.375 -14.84375 24.75 -17.8125 
Q 21.140625 -20.796875 15.09375 -20.796875 
L 7.90625 -20.796875 
L 7.90625 -13.28125 
L 13.1875 -13.28125 
Q 16.890625 -13.28125 18.9375 -11.515625 
Q 21 -9.765625 23.484375 -3.21875 
L 25.09375 0.875 
L 2.984375 54.6875 
L 12.5 54.6875 
L 29.59375 11.921875 
L 46.6875 54.6875 
L 56.203125 54.6875 
z
" id="DejaVuSans-121"/>
       <path d="M 12.40625 8.296875 
L 28.515625 8.296875 
L 28.515625 63.921875 
L 10.984375 60.40625 
L 10.984375 69.390625 
L 28.421875 72.90625 
L 38.28125 72.90625 
L 38.28125 8.296875 
L 54.390625 8.296875 
L 54.390625 0 
L 12.40625 0 
z
" id="DejaVuSans-49"/>
      </defs>
      <use xlink:href="#DejaVuSans-121"/>
      <use x="59.179688" xlink:href="#DejaVuSans-49"/>
     </g>
    </g>
   </g>
   <g id="matplotlib.axis_2">
    <g id="ytick_1">
     <g id="line2d_4">
      <defs>
       <path d="M 0 0 
L -3.5 0 
" id="m43ad768440" style="stroke:#000000;stroke-width:0.8;"/>
      </defs>
      <g>
       <use style="stroke:#000000;stroke-width:0.8;" x="28.942188" xlink:href="#m43ad768440" y="143.1"/>
      </g>
     </g>
     <g id="text_5">
      <!-- −3 -->
      <g transform="translate(7.2 146.899219)scale(0.1 -0.1)">
       <defs>
        <path d="M 40.578125 39.3125 
Q 47.65625 37.796875 51.625 33 
Q 55.609375 28.21875 55.609375 21.1875 
Q 55.609375 10.40625 48.1875 4.484375 
Q 40.765625 -1.421875 27.09375 -1.421875 
Q 22.515625 -1.421875 17.65625 -0.515625 
Q 12.796875 0.390625 7.625 2.203125 
L 7.625 11.71875 
Q 11.71875 9.328125 16.59375 8.109375 
Q 21.484375 6.890625 26.8125 6.890625 
Q 36.078125 6.890625 40.9375 10.546875 
Q 45.796875 14.203125 45.796875 21.1875 
Q 45.796875 27.640625 41.28125 31.265625 
Q 36.765625 34.90625 28.71875 34.90625 
L 20.21875 34.90625 
L 20.21875 43.015625 
L 29.109375 43.015625 
Q 36.375 43.015625 40.234375 45.921875 
Q 44.09375 48.828125 44.09375 54.296875 
Q 44.09375 59.90625 40.109375 62.90625 
Q 36.140625 65.921875 28.71875 65.921875 
Q 24.65625 65.921875 20.015625 65.03125 
Q 15.375 64.15625 9.8125 62.3125 
L 9.8125 71.09375 
Q 15.4375 72.65625 20.34375 73.4375 
Q 25.25 74.21875 29.59375 74.21875 
Q 40.828125 74.21875 47.359375 69.109375 
Q 53.90625 64.015625 53.90625 55.328125 
Q 53.90625 49.265625 50.4375 45.09375 
Q 46.96875 40.921875 40.578125 39.3125 
z
" id="DejaVuSans-51"/>
       </defs>
       <use xlink:href="#DejaVuSans-8722"/>
       <use x="83.789062" xlink:href="#DejaVuSans-51"/>
      </g>
     </g>
    </g>
    <g id="ytick_2">
     <g id="line2d_5">
      <g>
       <use style="stroke:#000000;stroke-width:0.8;" x="28.942188" xlink:href="#m43ad768440" y="112.283673"/>
      </g>
     </g>
     <g id="text_6">
      <!-- −2 -->
      <g transform="translate(7.2 116.082892)scale(0.1 -0.1)">
       <use xlink:href="#DejaVuSans-8722"/>
       <use x="83.789062" xlink:href="#DejaVuSans-50"/>
      </g>
     </g>
    </g>
    <g id="ytick_3">
     <g id="line2d_6">
      <g>
       <use style="stroke:#000000;stroke-width:0.8;" x="28.942188" xlink:href="#m43ad768440" y="81.467347"/>
      </g>
     </g>
     <g id="text_7">
      <!-- −1 -->
      <g transform="translate(7.2 85.266566)scale(0.1 -0.1)">
       <use xlink:href="#DejaVuSans-8722"/>
       <use x="83.789062" xlink:href="#DejaVuSans-49"/>
      </g>
     </g>
    </g>
    <g id="ytick_4">
     <g id="line2d_7">
      <g>
       <use style="stroke:#000000;stroke-width:0.8;" x="28.942188" xlink:href="#m43ad768440" y="50.65102"/>
      </g>
     </g>
     <g id="text_8">
      <!-- 0 -->
      <g transform="translate(15.579688 54.450239)scale(0.1 -0.1)">
       <use xlink:href="#DejaVuSans-48"/>
      </g>
     </g>
    </g>
    <g id="ytick_5">
     <g id="line2d_8">
      <g>
       <use style="stroke:#000000;stroke-width:0.8;" x="28.942188" xlink:href="#m43ad768440" y="19.834694"/>
      </g>
     </g>
     <g id="text_9">
      <!-- 1 -->
      <g transform="translate(15.579688 23.633913)scale(0.1 -0.1)">
       <use xlink:href="#DejaVuSans-49"/>
      </g>
     </g>
    </g>
   </g>
   <g id="LineCollection_1"/>
   <g id="LineCollection_2">
    <path clip-path="url(#p7b0ee136ec)" d="M 224.242188 87.87098 
L 221.190625 87.975755 
L 218.139063 88.068204 
L 215.0875 88.148327 
L 212.035938 88.216122 
L 208.984375 88.271592 
L 205.932813 88.314735 
L 202.88125 88.345551 
L 199.829688 88.364041 
L 196.778125 88.370204 
L 193.726563 88.364041 
L 190.675 88.345551 
L 187.623438 88.314735 
L 184.571875 88.271592 
L 181.520313 88.216122 
L 178.46875 88.148327 
L 175.417188 88.068204 
L 172.365625 87.975755 
L 169.314063 87.87098 
L 166.2625 87.753878 
L 163.35625 87.630612 
L 163.210938 87.623913 
L 160.159375 87.469831 
L 157.107813 87.302351 
L 154.05625 87.121473 
L 151.004688 86.927196 
L 147.953125 86.719521 
L 144.901563 86.498447 
L 141.85 86.263975 
L 138.798438 86.016105 
L 135.746875 85.754836 
L 132.695312 85.480169 
L 129.64375 85.192103 
L 126.592188 84.890639 
L 123.540625 84.575776 
L 123.291518 84.54898 
L 120.489063 84.218805 
L 117.4375 83.844606 
L 114.385938 83.455734 
L 111.334375 83.052187 
L 108.282813 82.633965 
L 105.23125 82.201069 
L 102.179688 81.753499 
L 100.290625 81.467347 
L 99.128125 81.272718 
L 96.076563 80.745596 
L 93.025 80.202256 
L 89.973438 79.642696 
L 86.921875 79.066917 
L 83.870313 78.474919 
L 83.42275 78.385714 
L 80.81875 77.805642 
L 77.767188 77.107743 
L 74.715625 76.391717 
L 71.664063 75.657563 
L 70.230196 75.304082 
L 68.6125 74.852109 
L 65.560938 73.97898 
L 62.509375 73.085306 
L 59.629249 72.222449 
L 59.457813 72.163187 
L 56.40625 71.084615 
L 53.354688 69.982339 
L 51.074046 69.140816 
L 50.303125 68.804638 
L 47.251563 67.445918 
L 44.2 66.059184 
L 44.2 66.059184 
L 41.148438 64.330045 
L 38.807919 62.977551 
L 38.096875 62.449271 
L 35.045312 60.138047 
L 34.7316 59.895918 
L 31.99375 56.937551 
L 31.881766 56.814286 
L 30.202007 53.732653 
L 29.642087 50.65102 
L 30.202007 47.569388 
L 31.881766 44.487755 
L 31.99375 44.36449 
L 34.7316 41.406122 
L 35.045312 41.163994 
L 38.096875 38.85277 
L 38.807919 38.32449 
L 41.148438 36.971995 
L 44.2 35.242857 
L 44.2 35.242857 
L 47.251563 33.856122 
L 50.303125 32.497403 
L 51.074046 32.161224 
L 53.354688 31.319702 
L 56.40625 30.217425 
L 59.457813 29.138854 
L 59.629249 29.079592 
L 62.509375 28.216735 
L 65.560938 27.323061 
L 68.6125 26.449932 
L 70.230196 25.997959 
L 71.664063 25.644478 
L 74.715625 24.910324 
L 77.767188 24.194298 
L 80.81875 23.496399 
L 83.42275 22.916327 
" style="fill:none;stroke:#472d7b;stroke-width:1.5;"/>
   </g>
   <g id="LineCollection_3">
    <path clip-path="url(#p7b0ee136ec)" d="M 224.242188 103.6507 
L 221.190625 103.725539 
L 218.139063 103.791574 
L 215.0875 103.848805 
L 212.035938 103.89723 
L 208.984375 103.936851 
L 205.932813 103.967668 
L 202.88125 103.989679 
L 199.829688 104.002886 
L 196.778125 104.007289 
L 193.726563 104.002886 
L 190.675 103.989679 
L 187.623438 103.967668 
L 184.571875 103.936851 
L 181.520313 103.89723 
L 178.46875 103.848805 
L 175.417188 103.791574 
L 172.365625 103.725539 
L 169.314063 103.6507 
L 166.2625 103.567055 
L 163.210938 103.474606 
L 160.159375 103.373353 
L 157.107813 103.263294 
L 154.05625 103.144431 
L 151.530819 103.038776 
L 151.004688 103.01543 
L 147.953125 102.870686 
L 144.901563 102.716605 
L 141.85 102.553185 
L 138.798438 102.380427 
L 135.746875 102.19833 
L 132.695312 102.006895 
L 129.64375 101.806122 
L 126.592188 101.596011 
L 123.540625 101.376562 
L 120.489063 101.147774 
L 117.4375 100.909647 
L 114.385938 100.662183 
L 111.334375 100.40538 
L 108.282813 100.139239 
L 106.265678 99.957143 
L 105.23125 99.857735 
L 102.179688 99.554542 
L 99.128125 99.241409 
L 96.076563 98.918334 
L 93.025 98.585319 
L 89.973438 98.242363 
L 86.921875 97.889467 
L 83.870313 97.526629 
L 80.81875 97.153851 
L 78.599432 96.87551 
L 77.767188 96.763934 
L 74.715625 96.344194 
L 71.664063 95.913828 
L 68.6125 95.472836 
L 65.560938 95.021217 
L 62.509375 94.558973 
L 59.457813 94.086101 
L 57.613462 93.793878 
L 56.40625 93.588435 
L 53.354688 93.05771 
L 50.303125 92.515571 
L 47.251563 91.962018 
L 44.2 91.397052 
L 41.148438 90.820673 
L 40.585528 90.712245 
L 38.096875 90.194531 
L 35.045312 89.547388 
L 31.99375 88.887918 
L 28.942188 88.216122 
" style="fill:none;stroke:#3b528b;stroke-width:1.5;"/>
   </g>
   <g id="LineCollection_4">
    <path clip-path="url(#p7b0ee136ec)" d="M 224.242188 115.720052 
L 221.190625 115.780968 
L 218.139063 115.834718 
L 215.0875 115.8813 
L 212.035938 115.920717 
L 208.984375 115.952966 
L 205.932813 115.978049 
L 202.88125 115.995966 
L 199.829688 116.006716 
L 196.778125 116.010299 
L 193.726563 116.006716 
L 190.675 115.995966 
L 187.623438 115.978049 
L 184.571875 115.952966 
L 181.520313 115.920717 
L 178.46875 115.8813 
L 175.417188 115.834718 
L 172.365625 115.780968 
L 169.314063 115.720052 
L 166.2625 115.65197 
L 163.210938 115.57672 
L 160.159375 115.494305 
L 157.107813 115.404722 
L 155.864583 115.365306 
L 154.05625 115.305177 
L 151.004688 115.196192 
L 147.953125 115.079691 
L 144.901563 114.955674 
L 141.85 114.824141 
L 138.798438 114.685092 
L 135.746875 114.538527 
L 132.695312 114.384445 
L 129.64375 114.222847 
L 126.592188 114.053733 
L 123.540625 113.877103 
L 120.489063 113.692957 
L 117.4375 113.501294 
L 114.385938 113.302115 
L 111.334375 113.095421 
L 108.282813 112.88121 
L 105.23125 112.659482 
L 102.179688 112.430239 
L 100.290625 112.283673 
L 99.128125 112.188854 
L 96.076563 111.932051 
L 93.025 111.667347 
L 89.973438 111.394741 
L 86.921875 111.114233 
L 83.870313 110.825824 
L 80.81875 110.529513 
L 77.767188 110.225301 
L 74.715625 109.913187 
L 71.664063 109.593171 
L 68.6125 109.265254 
L 68.038088 109.202041 
L 65.560938 108.914699 
L 62.509375 108.552399 
L 59.457813 108.181771 
L 56.40625 107.802813 
L 53.354688 107.415527 
L 50.303125 107.019912 
L 47.251563 106.615968 
L 44.2 106.203696 
L 43.59573 106.120408 
L 41.148438 105.763819 
L 38.096875 105.310379 
L 35.045312 104.848134 
L 31.99375 104.377085 
L 28.942188 103.89723 
" style="fill:none;stroke:#2c728e;stroke-width:1.5;"/>
   </g>
   <g id="LineCollection_5">
    <path clip-path="url(#p7b0ee136ec)" d="M 224.242188 125.864869 
L 221.190625 125.918326 
L 218.139063 125.965494 
L 215.0875 126.006372 
L 212.035938 126.040962 
L 208.984375 126.069263 
L 205.932813 126.091274 
L 202.88125 126.106997 
L 199.829688 126.116431 
L 196.778125 126.119575 
L 193.726563 126.116431 
L 190.675 126.106997 
L 187.623438 126.091274 
L 184.571875 126.069263 
L 181.520313 126.040962 
L 178.46875 126.006372 
L 175.417188 125.965494 
L 172.365625 125.918326 
L 169.314063 125.864869 
L 166.2625 125.805123 
L 163.210938 125.739088 
L 160.159375 125.666764 
L 157.107813 125.588151 
L 154.05625 125.503249 
L 151.004688 125.412057 
L 147.953125 125.314577 
L 144.901563 125.210808 
L 141.85 125.10075 
L 138.798438 124.984402 
L 135.746875 124.861766 
L 132.695312 124.73284 
L 129.927616 124.610204 
L 129.64375 124.597091 
L 126.592188 124.449566 
L 123.540625 124.295484 
L 120.489063 124.134846 
L 117.4375 123.967651 
L 114.385938 123.793899 
L 111.334375 123.613591 
L 108.282813 123.426726 
L 105.23125 123.233304 
L 102.179688 123.033326 
L 99.128125 122.826791 
L 96.076563 122.6137 
L 93.025 122.394051 
L 89.973438 122.167846 
L 86.921875 121.935085 
L 83.870313 121.695766 
L 81.79525 121.528571 
L 80.81875 121.446395 
L 77.767187 121.182744 
L 74.715625 120.912245 
L 71.664063 120.634898 
L 68.6125 120.350703 
L 65.560938 120.05966 
L 62.509375 119.761769 
L 59.457813 119.457029 
L 56.40625 119.145442 
L 53.354688 118.827007 
L 50.303125 118.501723 
L 49.799774 118.446939 
L 47.251563 118.156692 
L 44.2 117.801946 
L 41.148438 117.440033 
L 38.096875 117.070954 
L 35.045312 116.694708 
L 31.99375 116.311296 
L 28.942188 115.920717 
" style="fill:none;stroke:#21918c;stroke-width:1.5;"/>
   </g>
   <g id="LineCollection_6">
    <path clip-path="url(#p7b0ee136ec)" d="M 224.242188 134.804805 
L 221.190625 134.85243 
L 218.139063 134.894453 
L 215.0875 134.930872 
L 212.035938 134.961688 
L 208.984375 134.986902 
L 205.932813 135.006512 
L 202.88125 135.020519 
L 199.829688 135.028924 
L 196.778125 135.031725 
L 193.726563 135.028924 
L 190.675 135.020519 
L 187.623438 135.006512 
L 184.571875 134.986902 
L 181.520313 134.961688 
L 178.46875 134.930872 
L 175.417188 134.894453 
L 172.365625 134.85243 
L 169.314063 134.804805 
L 166.2625 134.751577 
L 163.210938 134.692746 
L 160.159375 134.628312 
L 157.107813 134.558275 
L 154.05625 134.482635 
L 151.004688 134.401391 
L 147.953125 134.314545 
L 144.901563 134.222096 
L 141.85 134.124045 
L 138.798438 134.02039 
L 135.746875 133.911132 
L 134.258308 133.855102 
L 132.695312 133.794051 
L 129.64375 133.669041 
L 126.592188 133.538217 
L 123.540625 133.401579 
L 120.489063 133.259126 
L 117.4375 133.110859 
L 114.385938 132.956777 
L 111.334375 132.796881 
L 108.282813 132.631171 
L 105.23125 132.459646 
L 102.179688 132.282307 
L 99.128125 132.099153 
L 96.076563 131.910185 
L 93.025 131.715402 
L 89.973438 131.514806 
L 86.921875 131.308394 
L 83.870313 131.096169 
L 80.81875 130.878129 
L 79.392045 130.773469 
L 77.767188 130.6496 
L 74.715625 130.410924 
L 71.664063 130.166206 
L 68.6125 129.915446 
L 65.560938 129.658643 
L 62.509375 129.395798 
L 59.457813 129.126911 
L 56.40625 128.851981 
L 53.354688 128.571008 
L 50.303125 128.283994 
L 47.251563 127.990936 
L 44.2 127.691837 
L 44.2 127.691837 
L 41.148438 127.37424 
L 38.096875 127.050354 
L 35.045312 126.720179 
L 31.99375 126.383715 
L 28.942188 126.040962 
" style="fill:none;stroke:#28ae80;stroke-width:1.5;"/>
   </g>
   <g id="LineCollection_7">
    <path clip-path="url(#p7b0ee136ec)" d="M 196.778125 143.1 
L 193.726563 143.097388 
L 190.675 143.089554 
L 187.623438 143.076496 
L 184.571875 143.058215 
L 181.520313 143.034711 
L 178.46875 143.005984 
L 175.417188 142.972034 
L 172.365625 142.932861 
L 169.314063 142.888464 
L 166.2625 142.838845 
L 163.210938 142.784002 
L 160.159375 142.723936 
L 157.107813 142.658648 
L 154.05625 142.588136 
L 151.004688 142.512401 
L 147.953125 142.431442 
L 144.901563 142.345261 
L 141.85 142.253857 
L 138.798438 142.157229 
L 135.746875 142.055379 
L 132.695312 141.948305 
L 129.64375 141.836008 
L 126.592188 141.718488 
L 123.540625 141.595745 
L 120.489063 141.467779 
L 117.4375 141.33459 
L 114.385938 141.196178 
L 111.334375 141.052542 
L 108.282813 140.903684 
L 105.23125 140.749602 
L 102.179688 140.590297 
L 99.128125 140.42577 
L 96.076563 140.256019 
L 93.025 140.081045 
L 91.963587 140.018367 
L 89.973438 139.896724 
L 86.921875 139.704798 
L 83.870313 139.507465 
L 80.81875 139.304726 
L 77.767188 139.096581 
L 74.715625 138.883029 
L 71.664063 138.664071 
L 68.6125 138.439706 
L 65.560938 138.209936 
L 62.509375 137.974758 
L 59.457813 137.734175 
L 56.40625 137.488185 
L 53.354688 137.236788 
L 50.303125 136.979986 
L 49.799774 136.936735 
L 47.251563 136.709814 
L 44.2 136.432468 
L 41.148438 136.149518 
L 38.096875 135.860965 
L 35.045312 135.566809 
L 31.99375 135.26705 
L 28.942188 134.961688 
" style="fill:none;stroke:#5ec962;stroke-width:1.5;"/>
    <path clip-path="url(#p7b0ee136ec)" d="M 224.242188 142.888464 
L 221.190625 142.932861 
L 218.139063 142.972034 
L 215.0875 143.005984 
L 212.035938 143.034711 
L 208.984375 143.058215 
L 205.932813 143.076496 
L 202.88125 143.089554 
L 199.829688 143.097388 
L 196.778125 143.1 
" style="fill:none;stroke:#5ec962;stroke-width:1.5;"/>
   </g>
   <g id="LineCollection_8">
    <path clip-path="url(#p7b0ee136ec)" d="M 29.642087 143.1 
L 28.942188 143.034711 
" style="fill:none;stroke:#addc30;stroke-width:1.5;"/>
   </g>
   <g id="LineCollection_9"/>
   <g id="line2d_9">
    <path clip-path="url(#p7b0ee136ec)" d="M 44.2 112.283673 
L 56.40625 13.671429 
L 73.739125 23.532653 
L 92.248683 71.852653 
L 109.865817 62.090041 
L 125.627368 38.906302 
L 139.200205 46.105982 
L 150.592857 56.977883 
L 159.984004 52.290853 
L 167.623107 47.323606 
L 173.77506 50.163845 
L 178.691282 52.363445 
L 182.59634 50.723365 
L 185.683412 49.787573 
L 188.114525 50.701193 
L 190.02317 51.077727 
L 191.517888 50.583264 
L 192.686067 50.444443 
L 193.59752 50.705557 
L 194.307696 50.748856 
L 194.860418 50.613969 
" style="fill:none;stroke:#ffa500;stroke-linecap:square;stroke-width:1.5;"/>
    <defs>
     <path d="M 0 3 
C 0.795609 3 1.55874 2.683901 2.12132 2.12132 
C 2.683901 1.55874 3 0.795609 3 0 
C 3 -0.795609 2.683901 -1.55874 2.12132 -2.12132 
C 1.55874 -2.683901 0.795609 -3 0 -3 
C -0.795609 -3 -1.55874 -2.683901 -2.12132 -2.12132 
C -2.683901 -1.55874 -3 -0.795609 -3 0 
C -3 0.795609 -2.683901 1.55874 -2.12132 2.12132 
C -1.55874 2.683901 -0.795609 3 0 3 
z
" id="m006cae631f" style="stroke:#ffa500;"/>
    </defs>
    <g clip-path="url(#p7b0ee136ec)">
     <use style="fill:#ffa500;stroke:#ffa500;" x="44.2" xlink:href="#m006cae631f" y="112.283673"/>
     <use style="fill:#ffa500;stroke:#ffa500;" x="56.40625" xlink:href="#m006cae631f" y="13.671429"/>
     <use style="fill:#ffa500;stroke:#ffa500;" x="73.739125" xlink:href="#m006cae631f" y="23.532653"/>
     <use style="fill:#ffa500;stroke:#ffa500;" x="92.248683" xlink:href="#m006cae631f" y="71.852653"/>
     <use style="fill:#ffa500;stroke:#ffa500;" x="109.865817" xlink:href="#m006cae631f" y="62.090041"/>
     <use style="fill:#ffa500;stroke:#ffa500;" x="125.627368" xlink:href="#m006cae631f" y="38.906302"/>
     <use style="fill:#ffa500;stroke:#ffa500;" x="139.200205" xlink:href="#m006cae631f" y="46.105982"/>
     <use style="fill:#ffa500;stroke:#ffa500;" x="150.592857" xlink:href="#m006cae631f" y="56.977883"/>
     <use style="fill:#ffa500;stroke:#ffa500;" x="159.984004" xlink:href="#m006cae631f" y="52.290853"/>
     <use style="fill:#ffa500;stroke:#ffa500;" x="167.623107" xlink:href="#m006cae631f" y="47.323606"/>
     <use style="fill:#ffa500;stroke:#ffa500;" x="173.77506" xlink:href="#m006cae631f" y="50.163845"/>
     <use style="fill:#ffa500;stroke:#ffa500;" x="178.691282" xlink:href="#m006cae631f" y="52.363445"/>
     <use style="fill:#ffa500;stroke:#ffa500;" x="182.59634" xlink:href="#m006cae631f" y="50.723365"/>
     <use style="fill:#ffa500;stroke:#ffa500;" x="185.683412" xlink:href="#m006cae631f" y="49.787573"/>
     <use style="fill:#ffa500;stroke:#ffa500;" x="188.114525" xlink:href="#m006cae631f" y="50.701193"/>
     <use style="fill:#ffa500;stroke:#ffa500;" x="190.02317" xlink:href="#m006cae631f" y="51.077727"/>
     <use style="fill:#ffa500;stroke:#ffa500;" x="191.517888" xlink:href="#m006cae631f" y="50.583264"/>
     <use style="fill:#ffa500;stroke:#ffa500;" x="192.686067" xlink:href="#m006cae631f" y="50.444443"/>
     <use style="fill:#ffa500;stroke:#ffa500;" x="193.59752" xlink:href="#m006cae631f" y="50.705557"/>
     <use style="fill:#ffa500;stroke:#ffa500;" x="194.307696" xlink:href="#m006cae631f" y="50.748856"/>
     <use style="fill:#ffa500;stroke:#ffa500;" x="194.860418" xlink:href="#m006cae631f" y="50.613969"/>
    </g>
   </g>
   <g id="patch_3">
    <path d="M 28.942188 143.1 
L 28.942188 7.2 
" style="fill:none;stroke:#000000;stroke-linecap:square;stroke-linejoin:miter;stroke-width:0.8;"/>
   </g>
   <g id="patch_4">
    <path d="M 224.242188 143.1 
L 224.242188 7.2 
" style="fill:none;stroke:#000000;stroke-linecap:square;stroke-linejoin:miter;stroke-width:0.8;"/>
   </g>
   <g id="patch_5">
    <path d="M 28.942188 143.1 
L 224.242188 143.1 
" style="fill:none;stroke:#000000;stroke-linecap:square;stroke-linejoin:miter;stroke-width:0.8;"/>
   </g>
   <g id="patch_6">
    <path d="M 28.942188 7.2 
L 224.242188 7.2 
" style="fill:none;stroke:#000000;stroke-linecap:square;stroke-linejoin:miter;stroke-width:0.8;"/>
   </g>
  </g>
 </g>
 <defs>
  <clipPath id="p7b0ee136ec">
   <rect height="135.9" width="195.3" x="28.942188" y="7.2"/>
  </clipPath>
 </defs>
</svg>
