<?xml version="1.0" encoding="utf-8" standalone="no"?>
<!DOCTYPE svg PUBLIC "-//W3C//DTD SVG 1.1//EN"
  "http://www.w3.org/Graphics/SVG/1.1/DTD/svg11.dtd">
<!-- Created with matplotlib (https://matplotlib.org/) -->
<svg height="166.978125pt" version="1.1" viewBox="0 0 231.442188 166.978125" width="231.442188pt" xmlns="http://www.w3.org/2000/svg" xmlns:xlink="http://www.w3.org/1999/xlink">
 <metadata>
  <rdf:RDF xmlns:cc="http://creativecommons.org/ns#" xmlns:dc="http://purl.org/dc/elements/1.1/" xmlns:rdf="http://www.w3.org/1999/02/22-rdf-syntax-ns#">
   <cc:Work>
    <dc:type rdf:resource="http://purl.org/dc/dcmitype/StillImage"/>
    <dc:date>2021-07-13T18:54:37.173027</dc:date>
    <dc:format>image/svg+xml</dc:format>
    <dc:creator>
     <cc:Agent>
      <dc:title>Matplotlib v3.3.2, https://matplotlib.org/</dc:title>
     </cc:Agent>
    </dc:creator>
   </cc:Work>
  </rdf:RDF>
 </metadata>
 <defs>
  <style type="text/css">*{stroke-linecap:butt;stroke-linejoin:round;}</style>
 </defs>
 <g id="figure_1">
  <g id="patch_1">
   <path d="M 0 166.978125 
L 231.442188 166.978125 
L 231.442188 0 
L 0 0 
z
" style="fill:none;"/>
  </g>
  <g id="axes_1">
   <g id="patch_2">
    <path d="M 28.942188 143.1 
L 224.242188 143.1 
L 224.242188 7.2 
L 28.942188 7.2 
z
" style="fill:#ffffff;"/>
   </g>
   <g id="matplotlib.axis_1">
    <g id="xtick_1">
     <g id="line2d_1">
      <defs>
       <path d="M 0 0 
L 0 3.5 
" id="mf7a52f3f4e" style="stroke:#000000;stroke-width:0.8;"/>
      </defs>
      <g>
       <use style="stroke:#000000;stroke-width:0.8;" x="37.81946" xlink:href="#mf7a52f3f4e" y="143.1"/>
      </g>
     </g>
     <g id="text_1">
      <!-- 0 -->
      <g transform="translate(34.63821 157.698438)scale(0.1 -0.1)">
       <defs>
        <path d="M 31.78125 66.40625 
Q 24.171875 66.40625 20.328125 58.90625 
Q 16.5 51.421875 16.5 36.375 
Q 16.5 21.390625 20.328125 13.890625 
Q 24.171875 6.390625 31.78125 6.390625 
Q 39.453125 6.390625 43.28125 13.890625 
Q 47.125 21.390625 47.125 36.375 
Q 47.125 51.421875 43.28125 58.90625 
Q 39.453125 66.40625 31.78125 66.40625 
z
M 31.78125 74.21875 
Q 44.046875 74.21875 50.515625 64.515625 
Q 56.984375 54.828125 56.984375 36.375 
Q 56.984375 17.96875 50.515625 8.265625 
Q 44.046875 -1.421875 31.78125 -1.421875 
Q 19.53125 -1.421875 13.0625 8.265625 
Q 6.59375 17.96875 6.59375 36.375 
Q 6.59375 54.828125 13.0625 64.515625 
Q 19.53125 74.21875 31.78125 74.21875 
z
" id="DejaVuSans-48"/>
       </defs>
       <use xlink:href="#DejaVuSans-48"/>
      </g>
     </g>
    </g>
    <g id="xtick_2">
     <g id="line2d_2">
      <g>
       <use style="stroke:#000000;stroke-width:0.8;" x="82.205824" xlink:href="#mf7a52f3f4e" y="143.1"/>
      </g>
     </g>
     <g id="text_2">
      <!-- 5 -->
      <g transform="translate(79.024574 157.698438)scale(0.1 -0.1)">
       <defs>
        <path d="M 10.796875 72.90625 
L 49.515625 72.90625 
L 49.515625 64.59375 
L 19.828125 64.59375 
L 19.828125 46.734375 
Q 21.96875 47.46875 24.109375 47.828125 
Q 26.265625 48.1875 28.421875 48.1875 
Q 40.625 48.1875 47.75 41.5 
Q 54.890625 34.8125 54.890625 23.390625 
Q 54.890625 11.625 47.5625 5.09375 
Q 40.234375 -1.421875 26.90625 -1.421875 
Q 22.3125 -1.421875 17.546875 -0.640625 
Q 12.796875 0.140625 7.71875 1.703125 
L 7.71875 11.625 
Q 12.109375 9.234375 16.796875 8.0625 
Q 21.484375 6.890625 26.703125 6.890625 
Q 35.15625 6.890625 40.078125 11.328125 
Q 45.015625 15.765625 45.015625 23.390625 
Q 45.015625 31 40.078125 35.4375 
Q 35.15625 39.890625 26.703125 39.890625 
Q 22.75 39.890625 18.8125 39.015625 
Q 14.890625 38.140625 10.796875 36.28125 
z
" id="DejaVuSans-53"/>
       </defs>
       <use xlink:href="#DejaVuSans-53"/>
      </g>
     </g>
    </g>
    <g id="xtick_3">
     <g id="line2d_3">
      <g>
       <use style="stroke:#000000;stroke-width:0.8;" x="126.592188" xlink:href="#mf7a52f3f4e" y="143.1"/>
      </g>
     </g>
     <g id="text_3">
      <!-- 10 -->
      <g transform="translate(120.229688 157.698438)scale(0.1 -0.1)">
       <defs>
        <path d="M 12.40625 8.296875 
L 28.515625 8.296875 
L 28.515625 63.921875 
L 10.984375 60.40625 
L 10.984375 69.390625 
L 28.421875 72.90625 
L 38.28125 72.90625 
L 38.28125 8.296875 
L 54.390625 8.296875 
L 54.390625 0 
L 12.40625 0 
z
" id="DejaVuSans-49"/>
       </defs>
       <use xlink:href="#DejaVuSans-49"/>
       <use x="63.623047" xlink:href="#DejaVuSans-48"/>
      </g>
     </g>
    </g>
    <g id="xtick_4">
     <g id="line2d_4">
      <g>
       <use style="stroke:#000000;stroke-width:0.8;" x="170.978551" xlink:href="#mf7a52f3f4e" y="143.1"/>
      </g>
     </g>
     <g id="text_4">
      <!-- 15 -->
      <g transform="translate(164.616051 157.698438)scale(0.1 -0.1)">
       <use xlink:href="#DejaVuSans-49"/>
       <use x="63.623047" xlink:href="#DejaVuSans-53"/>
      </g>
     </g>
    </g>
    <g id="xtick_5">
     <g id="line2d_5">
      <g>
       <use style="stroke:#000000;stroke-width:0.8;" x="215.364915" xlink:href="#mf7a52f3f4e" y="143.1"/>
      </g>
     </g>
     <g id="text_5">
      <!-- 20 -->
      <g transform="translate(209.002415 157.698438)scale(0.1 -0.1)">
       <defs>
        <path d="M 19.1875 8.296875 
L 53.609375 8.296875 
L 53.609375 0 
L 7.328125 0 
L 7.328125 8.296875 
Q 12.9375 14.109375 22.625 23.890625 
Q 32.328125 33.6875 34.8125 36.53125 
Q 39.546875 41.84375 41.421875 45.53125 
Q 43.3125 49.21875 43.3125 52.78125 
Q 43.3125 58.59375 39.234375 62.25 
Q 35.15625 65.921875 28.609375 65.921875 
Q 23.96875 65.921875 18.8125 64.3125 
Q 13.671875 62.703125 7.8125 59.421875 
L 7.8125 69.390625 
Q 13.765625 71.78125 18.9375 73 
Q 24.125 74.21875 28.421875 74.21875 
Q 39.75 74.21875 46.484375 68.546875 
Q 53.21875 62.890625 53.21875 53.421875 
Q 53.21875 48.921875 51.53125 44.890625 
Q 49.859375 40.875 45.40625 35.40625 
Q 44.1875 33.984375 37.640625 27.21875 
Q 31.109375 20.453125 19.1875 8.296875 
z
" id="DejaVuSans-50"/>
       </defs>
       <use xlink:href="#DejaVuSans-50"/>
       <use x="63.623047" xlink:href="#DejaVuSans-48"/>
      </g>
     </g>
    </g>
   </g>
   <g id="matplotlib.axis_2">
    <g id="ytick_1">
     <g id="line2d_6">
      <defs>
       <path d="M 0 0 
L -3.5 0 
" id="m53ba658a42" style="stroke:#000000;stroke-width:0.8;"/>
      </defs>
      <g>
       <use style="stroke:#000000;stroke-width:0.8;" x="28.942188" xlink:href="#m53ba658a42" y="141.253385"/>
      </g>
     </g>
     <g id="text_6">
      <!-- −2 -->
      <g transform="translate(7.2 145.052604)scale(0.1 -0.1)">
       <defs>
        <path d="M 10.59375 35.5 
L 73.1875 35.5 
L 73.1875 27.203125 
L 10.59375 27.203125 
z
" id="DejaVuSans-8722"/>
       </defs>
       <use xlink:href="#DejaVuSans-8722"/>
       <use x="83.789062" xlink:href="#DejaVuSans-50"/>
      </g>
     </g>
    </g>
    <g id="ytick_2">
     <g id="line2d_7">
      <g>
       <use style="stroke:#000000;stroke-width:0.8;" x="28.942188" xlink:href="#m53ba658a42" y="104.708543"/>
      </g>
     </g>
     <g id="text_7">
      <!-- −1 -->
      <g transform="translate(7.2 108.507762)scale(0.1 -0.1)">
       <use xlink:href="#DejaVuSans-8722"/>
       <use x="83.789062" xlink:href="#DejaVuSans-49"/>
      </g>
     </g>
    </g>
    <g id="ytick_3">
     <g id="line2d_8">
      <g>
       <use style="stroke:#000000;stroke-width:0.8;" x="28.942188" xlink:href="#m53ba658a42" y="68.163701"/>
      </g>
     </g>
     <g id="text_8">
      <!-- 0 -->
      <g transform="translate(15.579688 71.96292)scale(0.1 -0.1)">
       <use xlink:href="#DejaVuSans-48"/>
      </g>
     </g>
    </g>
    <g id="ytick_4">
     <g id="line2d_9">
      <g>
       <use style="stroke:#000000;stroke-width:0.8;" x="28.942188" xlink:href="#m53ba658a42" y="31.618859"/>
      </g>
     </g>
     <g id="text_9">
      <!-- 1 -->
      <g transform="translate(15.579688 35.418078)scale(0.1 -0.1)">
       <use xlink:href="#DejaVuSans-49"/>
      </g>
     </g>
    </g>
   </g>
   <g id="line2d_10">
    <path clip-path="url(#pc336661e92)" d="M 37.81946 76.839761 
L 46.696733 57.579569 
L 55.574006 98.285728 
L 64.451278 78.947982 
L 73.328551 27.740838 
L 82.205824 64.203761 
L 91.083097 58.791069 
L 99.960369 63.737917 
L 108.837642 49.620795 
L 117.714915 83.151163 
L 126.592188 13.377273 
L 135.46946 76.456771 
L 144.346733 81.848348 
L 153.224006 90.706965 
L 162.101278 82.330394 
L 170.978551 136.922727 
L 179.855824 30.03957 
L 188.733097 29.920372 
L 197.610369 106.931703 
L 206.487642 113.998201 
" style="fill:none;stroke:#1f77b4;stroke-linecap:square;stroke-width:1.5;"/>
   </g>
   <g id="line2d_11">
    <path clip-path="url(#pc336661e92)" d="M 37.81946 68.163701 
L 46.696733 69.031307 
L 55.574006 67.886133 
L 64.451278 70.926093 
L 73.328551 71.728282 
L 82.205824 67.329537 
L 91.083097 67.01696 
L 99.960369 66.194371 
L 108.837642 65.948725 
L 117.714915 64.315932 
L 126.592188 66.199455 
L 135.46946 60.917237 
L 144.346733 62.47119 
L 153.224006 64.408906 
L 162.101278 67.038712 
L 170.978551 68.56788 
L 179.855824 75.403365 
L 188.733097 70.866985 
L 197.610369 66.772324 
L 206.487642 70.788262 
L 215.364915 75.109256 
" style="fill:none;stroke:#ff7f0e;stroke-linecap:square;stroke-width:1.5;"/>
    <defs>
     <path d="M 0 3 
C 0.795609 3 1.55874 2.683901 2.12132 2.12132 
C 2.683901 1.55874 3 0.795609 3 0 
C 3 -0.795609 2.683901 -1.55874 2.12132 -2.12132 
C 1.55874 -2.683901 0.795609 -3 0 -3 
C -0.795609 -3 -1.55874 -2.683901 -2.12132 -2.12132 
C -2.683901 -1.55874 -3 -0.795609 -3 0 
C -3 0.795609 -2.683901 1.55874 -2.12132 2.12132 
C -1.55874 2.683901 -0.795609 3 0 3 
z
" id="m6f8d4679e2" style="stroke:#ff7f0e;"/>
    </defs>
    <g clip-path="url(#pc336661e92)">
     <use style="fill:#ff7f0e;stroke:#ff7f0e;" x="37.81946" xlink:href="#m6f8d4679e2" y="68.163701"/>
     <use style="fill:#ff7f0e;stroke:#ff7f0e;" x="46.696733" xlink:href="#m6f8d4679e2" y="69.031307"/>
     <use style="fill:#ff7f0e;stroke:#ff7f0e;" x="55.574006" xlink:href="#m6f8d4679e2" y="67.886133"/>
     <use style="fill:#ff7f0e;stroke:#ff7f0e;" x="64.451278" xlink:href="#m6f8d4679e2" y="70.926093"/>
     <use style="fill:#ff7f0e;stroke:#ff7f0e;" x="73.328551" xlink:href="#m6f8d4679e2" y="71.728282"/>
     <use style="fill:#ff7f0e;stroke:#ff7f0e;" x="82.205824" xlink:href="#m6f8d4679e2" y="67.329537"/>
     <use style="fill:#ff7f0e;stroke:#ff7f0e;" x="91.083097" xlink:href="#m6f8d4679e2" y="67.01696"/>
     <use style="fill:#ff7f0e;stroke:#ff7f0e;" x="99.960369" xlink:href="#m6f8d4679e2" y="66.194371"/>
     <use style="fill:#ff7f0e;stroke:#ff7f0e;" x="108.837642" xlink:href="#m6f8d4679e2" y="65.948725"/>
     <use style="fill:#ff7f0e;stroke:#ff7f0e;" x="117.714915" xlink:href="#m6f8d4679e2" y="64.315932"/>
     <use style="fill:#ff7f0e;stroke:#ff7f0e;" x="126.592188" xlink:href="#m6f8d4679e2" y="66.199455"/>
     <use style="fill:#ff7f0e;stroke:#ff7f0e;" x="135.46946" xlink:href="#m6f8d4679e2" y="60.917237"/>
     <use style="fill:#ff7f0e;stroke:#ff7f0e;" x="144.346733" xlink:href="#m6f8d4679e2" y="62.47119"/>
     <use style="fill:#ff7f0e;stroke:#ff7f0e;" x="153.224006" xlink:href="#m6f8d4679e2" y="64.408906"/>
     <use style="fill:#ff7f0e;stroke:#ff7f0e;" x="162.101278" xlink:href="#m6f8d4679e2" y="67.038712"/>
     <use style="fill:#ff7f0e;stroke:#ff7f0e;" x="170.978551" xlink:href="#m6f8d4679e2" y="68.56788"/>
     <use style="fill:#ff7f0e;stroke:#ff7f0e;" x="179.855824" xlink:href="#m6f8d4679e2" y="75.403365"/>
     <use style="fill:#ff7f0e;stroke:#ff7f0e;" x="188.733097" xlink:href="#m6f8d4679e2" y="70.866985"/>
     <use style="fill:#ff7f0e;stroke:#ff7f0e;" x="197.610369" xlink:href="#m6f8d4679e2" y="66.772324"/>
     <use style="fill:#ff7f0e;stroke:#ff7f0e;" x="206.487642" xlink:href="#m6f8d4679e2" y="70.788262"/>
     <use style="fill:#ff7f0e;stroke:#ff7f0e;" x="215.364915" xlink:href="#m6f8d4679e2" y="75.109256"/>
    </g>
   </g>
   <g id="patch_3">
    <path d="M 28.942188 143.1 
L 28.942188 7.2 
" style="fill:none;stroke:#000000;stroke-linecap:square;stroke-linejoin:miter;stroke-width:0.8;"/>
   </g>
   <g id="patch_4">
    <path d="M 224.242188 143.1 
L 224.242188 7.2 
" style="fill:none;stroke:#000000;stroke-linecap:square;stroke-linejoin:miter;stroke-width:0.8;"/>
   </g>
   <g id="patch_5">
    <path d="M 28.942187 143.1 
L 224.242188 143.1 
" style="fill:none;stroke:#000000;stroke-linecap:square;stroke-linejoin:miter;stroke-width:0.8;"/>
   </g>
   <g id="patch_6">
    <path d="M 28.942187 7.2 
L 224.242188 7.2 
" style="fill:none;stroke:#000000;stroke-linecap:square;stroke-linejoin:miter;stroke-width:0.8;"/>
   </g>
  </g>
 </g>
 <defs>
  <clipPath id="pc336661e92">
   <rect height="135.9" width="195.3" x="28.942188" y="7.2"/>
  </clipPath>
 </defs>
</svg>
