<?xml version="1.0" encoding="utf-8" standalone="no"?>
<!DOCTYPE svg PUBLIC "-//W3C//DTD SVG 1.1//EN"
  "http://www.w3.org/Graphics/SVG/1.1/DTD/svg11.dtd">
<!-- Created with matplotlib (https://matplotlib.org/) -->
<svg height="180.65625pt" version="1.1" viewBox="0 0 231.442188 180.65625" width="231.442188pt" xmlns="http://www.w3.org/2000/svg" xmlns:xlink="http://www.w3.org/1999/xlink">
 <metadata>
  <rdf:RDF xmlns:cc="http://creativecommons.org/ns#" xmlns:dc="http://purl.org/dc/elements/1.1/" xmlns:rdf="http://www.w3.org/1999/02/22-rdf-syntax-ns#">
   <cc:Work>
    <dc:type rdf:resource="http://purl.org/dc/dcmitype/StillImage"/>
    <dc:date>2021-07-13T18:54:37.087023</dc:date>
    <dc:format>image/svg+xml</dc:format>
    <dc:creator>
     <cc:Agent>
      <dc:title>Matplotlib v3.3.2, https://matplotlib.org/</dc:title>
     </cc:Agent>
    </dc:creator>
   </cc:Work>
  </rdf:RDF>
 </metadata>
 <defs>
  <style type="text/css">*{stroke-linecap:butt;stroke-linejoin:round;}</style>
 </defs>
 <g id="figure_1">
  <g id="patch_1">
   <path d="M 0 180.65625 
L 231.442188 180.65625 
L 231.442188 0 
L 0 0 
z
" style="fill:none;"/>
  </g>
  <g id="axes_1">
   <g id="patch_2">
    <path d="M 28.942188 143.1 
L 224.242188 143.1 
L 224.242188 7.2 
L 28.942188 7.2 
z
" style="fill:#ffffff;"/>
   </g>
   <g id="matplotlib.axis_1">
    <g id="xtick_1">
     <g id="line2d_1">
      <defs>
       <path d="M 0 0 
L 0 3.5 
" id="mdef9963f96" style="stroke:#000000;stroke-width:0.8;"/>
      </defs>
      <g>
       <use style="stroke:#000000;stroke-width:0.8;" x="74.715625" xlink:href="#mdef9963f96" y="143.1"/>
      </g>
     </g>
     <g id="text_1">
      <!-- −4 -->
      <g transform="translate(67.344531 157.698438)scale(0.1 -0.1)">
       <defs>
        <path d="M 10.59375 35.5 
L 73.1875 35.5 
L 73.1875 27.203125 
L 10.59375 27.203125 
z
" id="DejaVuSans-8722"/>
        <path d="M 37.796875 64.3125 
L 12.890625 25.390625 
L 37.796875 25.390625 
z
M 35.203125 72.90625 
L 47.609375 72.90625 
L 47.609375 25.390625 
L 58.015625 25.390625 
L 58.015625 17.1875 
L 47.609375 17.1875 
L 47.609375 0 
L 37.796875 0 
L 37.796875 17.1875 
L 4.890625 17.1875 
L 4.890625 26.703125 
z
" id="DejaVuSans-52"/>
       </defs>
       <use xlink:href="#DejaVuSans-8722"/>
       <use x="83.789062" xlink:href="#DejaVuSans-52"/>
      </g>
     </g>
    </g>
    <g id="xtick_2">
     <g id="line2d_2">
      <g>
       <use style="stroke:#000000;stroke-width:0.8;" x="135.746875" xlink:href="#mdef9963f96" y="143.1"/>
      </g>
     </g>
     <g id="text_2">
      <!-- −2 -->
      <g transform="translate(128.375781 157.698438)scale(0.1 -0.1)">
       <defs>
        <path d="M 19.1875 8.296875 
L 53.609375 8.296875 
L 53.609375 0 
L 7.328125 0 
L 7.328125 8.296875 
Q 12.9375 14.109375 22.625 23.890625 
Q 32.328125 33.6875 34.8125 36.53125 
Q 39.546875 41.84375 41.421875 45.53125 
Q 43.3125 49.21875 43.3125 52.78125 
Q 43.3125 58.59375 39.234375 62.25 
Q 35.15625 65.921875 28.609375 65.921875 
Q 23.96875 65.921875 18.8125 64.3125 
Q 13.671875 62.703125 7.8125 59.421875 
L 7.8125 69.390625 
Q 13.765625 71.78125 18.9375 73 
Q 24.125 74.21875 28.421875 74.21875 
Q 39.75 74.21875 46.484375 68.546875 
Q 53.21875 62.890625 53.21875 53.421875 
Q 53.21875 48.921875 51.53125 44.890625 
Q 49.859375 40.875 45.40625 35.40625 
Q 44.1875 33.984375 37.640625 27.21875 
Q 31.109375 20.453125 19.1875 8.296875 
z
" id="DejaVuSans-50"/>
       </defs>
       <use xlink:href="#DejaVuSans-8722"/>
       <use x="83.789062" xlink:href="#DejaVuSans-50"/>
      </g>
     </g>
    </g>
    <g id="xtick_3">
     <g id="line2d_3">
      <g>
       <use style="stroke:#000000;stroke-width:0.8;" x="196.778125" xlink:href="#mdef9963f96" y="143.1"/>
      </g>
     </g>
     <g id="text_3">
      <!-- 0 -->
      <g transform="translate(193.596875 157.698438)scale(0.1 -0.1)">
       <defs>
        <path d="M 31.78125 66.40625 
Q 24.171875 66.40625 20.328125 58.90625 
Q 16.5 51.421875 16.5 36.375 
Q 16.5 21.390625 20.328125 13.890625 
Q 24.171875 6.390625 31.78125 6.390625 
Q 39.453125 6.390625 43.28125 13.890625 
Q 47.125 21.390625 47.125 36.375 
Q 47.125 51.421875 43.28125 58.90625 
Q 39.453125 66.40625 31.78125 66.40625 
z
M 31.78125 74.21875 
Q 44.046875 74.21875 50.515625 64.515625 
Q 56.984375 54.828125 56.984375 36.375 
Q 56.984375 17.96875 50.515625 8.265625 
Q 44.046875 -1.421875 31.78125 -1.421875 
Q 19.53125 -1.421875 13.0625 8.265625 
Q 6.59375 17.96875 6.59375 36.375 
Q 6.59375 54.828125 13.0625 64.515625 
Q 19.53125 74.21875 31.78125 74.21875 
z
" id="DejaVuSans-48"/>
       </defs>
       <use xlink:href="#DejaVuSans-48"/>
      </g>
     </g>
    </g>
    <g id="text_4">
     <!-- y1 -->
     <g transform="translate(120.451563 171.376563)scale(0.1 -0.1)">
      <defs>
       <path d="M 32.171875 -5.078125 
Q 28.375 -14.84375 24.75 -17.8125 
Q 21.140625 -20.796875 15.09375 -20.796875 
L 7.90625 -20.796875 
L 7.90625 -13.28125 
L 13.1875 -13.28125 
Q 16.890625 -13.28125 18.9375 -11.515625 
Q 21 -9.765625 23.484375 -3.21875 
L 25.09375 0.875 
L 2.984375 54.6875 
L 12.5 54.6875 
L 29.59375 11.921875 
L 46.6875 54.6875 
L 56.203125 54.6875 
z
" id="DejaVuSans-121"/>
       <path d="M 12.40625 8.296875 
L 28.515625 8.296875 
L 28.515625 63.921875 
L 10.984375 60.40625 
L 10.984375 69.390625 
L 28.421875 72.90625 
L 38.28125 72.90625 
L 38.28125 8.296875 
L 54.390625 8.296875 
L 54.390625 0 
L 12.40625 0 
z
" id="DejaVuSans-49"/>
      </defs>
      <use xlink:href="#DejaVuSans-121"/>
      <use x="59.179688" xlink:href="#DejaVuSans-49"/>
     </g>
    </g>
   </g>
   <g id="matplotlib.axis_2">
    <g id="ytick_1">
     <g id="line2d_4">
      <defs>
       <path d="M 0 0 
L -3.5 0 
" id="m44062b58a0" style="stroke:#000000;stroke-width:0.8;"/>
      </defs>
      <g>
       <use style="stroke:#000000;stroke-width:0.8;" x="28.942188" xlink:href="#m44062b58a0" y="120.784729"/>
      </g>
     </g>
     <g id="text_5">
      <!-- −2 -->
      <g transform="translate(7.2 124.583948)scale(0.1 -0.1)">
       <use xlink:href="#DejaVuSans-8722"/>
       <use x="83.789062" xlink:href="#DejaVuSans-50"/>
      </g>
     </g>
    </g>
    <g id="ytick_2">
     <g id="line2d_5">
      <g>
       <use style="stroke:#000000;stroke-width:0.8;" x="28.942188" xlink:href="#m44062b58a0" y="76.154187"/>
      </g>
     </g>
     <g id="text_6">
      <!-- 0 -->
      <g transform="translate(15.579688 79.953406)scale(0.1 -0.1)">
       <use xlink:href="#DejaVuSans-48"/>
      </g>
     </g>
    </g>
    <g id="ytick_3">
     <g id="line2d_6">
      <g>
       <use style="stroke:#000000;stroke-width:0.8;" x="28.942188" xlink:href="#m44062b58a0" y="31.523645"/>
      </g>
     </g>
     <g id="text_7">
      <!-- 2 -->
      <g transform="translate(15.579688 35.322864)scale(0.1 -0.1)">
       <use xlink:href="#DejaVuSans-50"/>
      </g>
     </g>
    </g>
   </g>
   <g id="LineCollection_1"/>
   <g id="LineCollection_2">
    <path clip-path="url(#p370e7a004f)" d="M 224.242188 103.106571 
L 221.190625 103.182443 
L 218.139063 103.249389 
L 215.0875 103.307409 
L 212.035938 103.356502 
L 208.984375 103.39667 
L 205.932813 103.427911 
L 202.88125 103.450227 
L 199.829688 103.463616 
L 196.778125 103.468079 
L 193.726563 103.463616 
L 190.675 103.450227 
L 187.623438 103.427911 
L 184.571875 103.39667 
L 181.520313 103.356502 
L 178.46875 103.307409 
L 175.417188 103.249389 
L 172.365625 103.182443 
L 169.314063 103.106571 
L 166.2625 103.021773 
L 163.35625 102.932512 
L 163.210938 102.927661 
L 160.159375 102.816085 
L 157.107813 102.694806 
L 154.05625 102.563825 
L 151.004688 102.423142 
L 147.953125 102.272756 
L 144.901563 102.112669 
L 141.85 101.942879 
L 138.798438 101.763386 
L 135.746875 101.574191 
L 132.695312 101.375294 
L 129.64375 101.166695 
L 126.592188 100.948394 
L 123.540625 100.72039 
L 123.291518 100.700985 
L 120.489063 100.461893 
L 117.4375 100.190922 
L 114.385938 99.909324 
L 111.334375 99.617101 
L 108.282813 99.314251 
L 105.23125 99.000774 
L 102.179688 98.676671 
L 100.290625 98.469458 
L 99.128125 98.32852 
L 96.076563 97.946811 
L 93.025 97.553358 
L 89.973438 97.148159 
L 86.921875 96.731216 
L 83.870313 96.302528 
L 83.42275 96.237931 
L 80.81875 95.817879 
L 77.767188 95.312504 
L 74.715625 94.794002 
L 71.664063 94.262373 
L 70.230196 94.006404 
L 68.6125 93.679113 
L 65.560938 93.046847 
L 62.509375 92.399704 
L 59.629249 91.774877 
L 59.457813 91.731963 
L 56.40625 90.950928 
L 53.354688 90.152728 
L 51.074046 89.54335 
L 50.303125 89.29991 
L 47.251563 88.31601 
L 44.2 87.311823 
L 44.2 87.311823 
L 41.148438 86.059688 
L 38.807919 85.080296 
L 38.096875 84.697748 
L 35.045312 83.024103 
L 34.7316 82.848768 
L 31.99375 80.706502 
L 31.881766 80.617241 
L 30.202007 78.385714 
L 29.642087 76.154187 
L 30.202007 73.92266 
L 31.881766 71.691133 
L 31.99375 71.601872 
L 34.7316 69.459606 
L 35.045312 69.284272 
L 38.096875 67.610626 
L 38.807919 67.228079 
L 41.148438 66.248686 
L 44.2 64.996552 
L 44.2 64.996552 
L 47.251563 63.992365 
L 50.303125 63.008464 
L 51.074046 62.765025 
L 53.354688 62.155646 
L 56.40625 61.357446 
L 59.457813 60.576412 
L 59.629249 60.533498 
L 62.509375 59.90867 
L 65.560938 59.261527 
L 68.6125 58.629261 
L 70.230196 58.30197 
L 71.664063 58.046001 
L 74.715625 57.514373 
L 77.767188 56.995871 
L 80.81875 56.490496 
L 83.42275 56.070443 
" style="fill:none;stroke:#472d7b;stroke-width:1.5;"/>
   </g>
   <g id="LineCollection_3">
    <path clip-path="url(#p370e7a004f)" d="M 224.242188 114.533265 
L 221.190625 114.58746 
L 218.139063 114.635278 
L 215.0875 114.676721 
L 212.035938 114.711787 
L 208.984375 114.740479 
L 205.932813 114.762794 
L 202.88125 114.778733 
L 199.829688 114.788297 
L 196.778125 114.791485 
L 193.726563 114.788297 
L 190.675 114.778733 
L 187.623438 114.762794 
L 184.571875 114.740479 
L 181.520313 114.711787 
L 178.46875 114.676721 
L 175.417188 114.635278 
L 172.365625 114.58746 
L 169.314063 114.533265 
L 166.2625 114.472695 
L 163.210938 114.405749 
L 160.159375 114.332428 
L 157.107813 114.25273 
L 154.05625 114.166657 
L 151.530819 114.090148 
L 151.004688 114.073242 
L 147.953125 113.968428 
L 144.901563 113.856852 
L 141.85 113.738513 
L 138.798438 113.613412 
L 135.746875 113.481549 
L 132.695312 113.342924 
L 129.64375 113.197537 
L 126.592188 113.045387 
L 123.540625 112.886476 
L 120.489063 112.720802 
L 117.4375 112.548365 
L 114.385938 112.369167 
L 111.334375 112.183206 
L 108.282813 111.990484 
L 106.265678 111.858621 
L 105.23125 111.786636 
L 102.179688 111.567082 
L 99.128125 111.340331 
L 96.076563 111.10638 
L 93.025 110.865231 
L 89.973438 110.616884 
L 86.921875 110.361338 
L 83.870313 110.098594 
L 80.81875 109.828651 
L 78.599432 109.627094 
L 77.767188 109.546297 
L 74.715625 109.242348 
L 71.664063 108.930703 
L 68.6125 108.611364 
L 65.560938 108.28433 
L 62.509375 107.949601 
L 59.457813 107.607177 
L 57.613462 107.395567 
L 56.40625 107.246798 
L 53.354688 106.862479 
L 50.303125 106.469896 
L 47.251563 106.069048 
L 44.2 105.659934 
L 41.148438 105.242556 
L 40.585528 105.164039 
L 38.096875 104.789143 
L 35.045312 104.320522 
L 31.99375 103.842975 
L 28.942188 103.356502 
" style="fill:none;stroke:#3b528b;stroke-width:1.5;"/>
   </g>
   <g id="LineCollection_4">
    <path clip-path="url(#p370e7a004f)" d="M 224.242188 123.273141 
L 221.190625 123.317253 
L 218.139063 123.356175 
L 215.0875 123.389907 
L 212.035938 123.41845 
L 208.984375 123.441803 
L 205.932813 123.459967 
L 202.88125 123.472941 
L 199.829688 123.480725 
L 196.778125 123.48332 
L 193.726563 123.480725 
L 190.675 123.472941 
L 187.623438 123.459967 
L 184.571875 123.441803 
L 181.520313 123.41845 
L 178.46875 123.389907 
L 175.417188 123.356175 
L 172.365625 123.317253 
L 169.314063 123.273141 
L 166.2625 123.22384 
L 163.210938 123.169349 
L 160.159375 123.109669 
L 157.107813 123.044799 
L 155.864583 123.016256 
L 154.05625 122.972714 
L 151.004688 122.893794 
L 147.953125 122.809432 
L 144.901563 122.719626 
L 141.85 122.624378 
L 138.798438 122.523687 
L 135.746875 122.417554 
L 132.695312 122.305977 
L 129.64375 122.188958 
L 126.592188 122.066496 
L 123.540625 121.938592 
L 120.489063 121.805245 
L 117.4375 121.666454 
L 114.385938 121.522222 
L 111.334375 121.372546 
L 108.282813 121.217428 
L 105.23125 121.056867 
L 102.179688 120.890863 
L 100.290625 120.784729 
L 99.128125 120.716067 
L 96.076563 120.530106 
L 93.025 120.338424 
L 89.973438 120.141019 
L 86.921875 119.937893 
L 83.870313 119.729045 
L 80.81875 119.514475 
L 77.767188 119.294183 
L 74.715625 119.06817 
L 71.664063 118.836434 
L 68.6125 118.598977 
L 68.038088 118.553202 
L 65.560938 118.345127 
L 62.509375 118.082772 
L 59.457813 117.814386 
L 56.40625 117.539968 
L 53.354688 117.259519 
L 50.303125 116.97304 
L 47.251563 116.680529 
L 44.2 116.381986 
L 43.59573 116.321675 
L 41.148438 116.063455 
L 38.096875 115.735102 
L 35.045312 115.400373 
L 31.99375 115.059268 
L 28.942188 114.711787 
" style="fill:none;stroke:#2c728e;stroke-width:1.5;"/>
   </g>
   <g id="LineCollection_5">
    <path clip-path="url(#p370e7a004f)" d="M 224.242188 130.619388 
L 221.190625 130.658098 
L 218.139063 130.692254 
L 215.0875 130.721856 
L 212.035938 130.746904 
L 208.984375 130.767397 
L 205.932813 130.783337 
L 202.88125 130.794722 
L 199.829688 130.801553 
L 196.778125 130.80383 
L 193.726563 130.801553 
L 190.675 130.794722 
L 187.623438 130.783337 
L 184.571875 130.767397 
L 181.520313 130.746904 
L 178.46875 130.721856 
L 175.417188 130.692254 
L 172.365625 130.658098 
L 169.314063 130.619388 
L 166.2625 130.576123 
L 163.210938 130.528305 
L 160.159375 130.475932 
L 157.107813 130.419006 
L 154.05625 130.357525 
L 151.004688 130.29149 
L 147.953125 130.220901 
L 144.901563 130.145758 
L 141.85 130.06606 
L 138.798438 129.981809 
L 135.746875 129.893003 
L 132.695312 129.799643 
L 129.927616 129.710837 
L 129.64375 129.701342 
L 126.592188 129.594513 
L 123.540625 129.482937 
L 120.489063 129.366613 
L 117.4375 129.24554 
L 114.385938 129.11972 
L 111.334375 128.989152 
L 108.282813 128.853836 
L 105.23125 128.713772 
L 102.179688 128.56896 
L 99.128125 128.4194 
L 96.076563 128.265093 
L 93.025 128.106037 
L 89.973438 127.942234 
L 86.921875 127.773682 
L 83.870313 127.600383 
L 81.79525 127.47931 
L 80.81875 127.419803 
L 77.767187 127.228883 
L 74.715625 127.033005 
L 71.664063 126.832167 
L 68.6125 126.626371 
L 65.560938 126.415616 
L 62.509375 126.199901 
L 59.457813 125.979228 
L 56.40625 125.753596 
L 53.354688 125.523005 
L 50.303125 125.287455 
L 49.799774 125.247783 
L 47.251563 125.037605 
L 44.2 124.780719 
L 41.148438 124.518645 
L 38.096875 124.25138 
L 35.045312 123.978927 
L 31.99375 123.701283 
L 28.942188 123.41845 
" style="fill:none;stroke:#21918c;stroke-width:1.5;"/>
   </g>
   <g id="LineCollection_6">
    <path clip-path="url(#p370e7a004f)" d="M 224.242188 137.093135 
L 221.190625 137.127622 
L 218.139063 137.158052 
L 215.0875 137.184425 
L 212.035938 137.20674 
L 208.984375 137.224998 
L 205.932813 137.239198 
L 202.88125 137.249342 
L 199.829688 137.255428 
L 196.778125 137.257456 
L 193.726563 137.255428 
L 190.675 137.249342 
L 187.623438 137.239198 
L 184.571875 137.224998 
L 181.520313 137.20674 
L 178.46875 137.184425 
L 175.417188 137.158052 
L 172.365625 137.127622 
L 169.314063 137.093135 
L 166.2625 137.05459 
L 163.210938 137.011988 
L 160.159375 136.965329 
L 157.107813 136.914613 
L 154.05625 136.859839 
L 151.004688 136.801008 
L 147.953125 136.738119 
L 144.901563 136.671173 
L 141.85 136.60017 
L 138.798438 136.52511 
L 135.746875 136.445992 
L 134.258308 136.405419 
L 132.695312 136.361209 
L 129.64375 136.270685 
L 126.592188 136.17595 
L 123.540625 136.077005 
L 120.489063 135.97385 
L 117.4375 135.866484 
L 114.385938 135.754908 
L 111.334375 135.639121 
L 108.282813 135.519124 
L 105.23125 135.394916 
L 102.179688 135.266498 
L 99.128125 135.133869 
L 96.076563 134.99703 
L 93.025 134.855981 
L 89.973438 134.710721 
L 86.921875 134.561251 
L 83.870313 134.40757 
L 80.81875 134.249679 
L 79.392045 134.173892 
L 77.767188 134.084193 
L 74.715625 133.911359 
L 71.664063 133.73415 
L 68.6125 133.552564 
L 65.560938 133.366604 
L 62.509375 133.176268 
L 59.457813 132.981556 
L 56.40625 132.782469 
L 53.354688 132.579006 
L 50.303125 132.371168 
L 47.251563 132.158954 
L 44.2 131.942365 
L 44.2 131.942365 
L 41.148438 131.712381 
L 38.096875 131.477843 
L 35.045312 131.23875 
L 31.99375 130.995104 
L 28.942188 130.746904 
" style="fill:none;stroke:#28ae80;stroke-width:1.5;"/>
   </g>
   <g id="LineCollection_7">
    <path clip-path="url(#p370e7a004f)" d="M 196.778125 143.1 
L 193.726563 143.098109 
L 190.675 143.092436 
L 187.623438 143.08298 
L 184.571875 143.069742 
L 181.520313 143.052722 
L 178.46875 143.03192 
L 175.417188 143.007335 
L 172.365625 142.978968 
L 169.314063 142.946819 
L 166.2625 142.910888 
L 163.210938 142.871174 
L 160.159375 142.827678 
L 157.107813 142.7804 
L 154.05625 142.72934 
L 151.004688 142.674497 
L 147.953125 142.615872 
L 144.901563 142.553465 
L 141.85 142.487276 
L 138.798438 142.417304 
L 135.746875 142.34355 
L 132.695312 142.266014 
L 129.64375 142.184696 
L 126.592188 142.099595 
L 123.540625 142.010712 
L 120.489063 141.918047 
L 117.4375 141.8216 
L 114.385938 141.72137 
L 111.334375 141.617358 
L 108.282813 141.509564 
L 105.23125 141.397988 
L 102.179688 141.282629 
L 99.128125 141.163488 
L 96.076563 141.040565 
L 93.025 140.91386 
L 91.963587 140.868473 
L 89.973438 140.780386 
L 86.921875 140.641405 
L 83.870313 140.498509 
L 80.81875 140.351698 
L 77.767188 140.200972 
L 74.715625 140.046331 
L 71.664063 139.887775 
L 68.6125 139.725305 
L 65.560938 139.558919 
L 62.509375 139.388618 
L 59.457813 139.214402 
L 56.40625 139.036272 
L 53.354688 138.854226 
L 50.303125 138.668265 
L 49.799774 138.636946 
L 47.251563 138.472624 
L 44.2 138.271787 
L 41.148438 138.066892 
L 38.096875 137.85794 
L 35.045312 137.644931 
L 31.99375 137.427864 
L 28.942188 137.20674 
" style="fill:none;stroke:#5ec962;stroke-width:1.5;"/>
    <path clip-path="url(#p370e7a004f)" d="M 224.242188 142.946819 
L 221.190625 142.978968 
L 218.139063 143.007335 
L 215.0875 143.03192 
L 212.035938 143.052722 
L 208.984375 143.069742 
L 205.932813 143.08298 
L 202.88125 143.092436 
L 199.829688 143.098109 
L 196.778125 143.1 
" style="fill:none;stroke:#5ec962;stroke-width:1.5;"/>
   </g>
   <g id="LineCollection_8">
    <path clip-path="url(#p370e7a004f)" d="M 29.642087 143.1 
L 28.942188 143.052722 
" style="fill:none;stroke:#addc30;stroke-width:1.5;"/>
   </g>
   <g id="LineCollection_9"/>
   <g id="line2d_7">
    <path clip-path="url(#p370e7a004f)" d="M 44.2 120.784729 
L 62.509375 13.671429 
L 87.776313 110.073399 
L 113.489999 76.868276 
L 136.341417 58.551901 
L 155.019531 91.6392 
L 169.369619 71.018819 
L 179.833684 73.033513 
L 187.09905 81.530479 
L 191.893221 72.875862 
L 194.876496 76.416534 
L 196.596328 77.557238 
L 197.47806 74.760268 
L 197.834934 76.707189 
L 197.886554 76.353445 
L 197.779352 75.698354 
L 197.605604 76.464808 
L 197.419433 76.102545 
L 197.24939 76.045355 
L 197.107817 76.277957 
L 196.997467 76.09721 
" style="fill:none;stroke:#ffa500;stroke-linecap:square;stroke-width:1.5;"/>
    <defs>
     <path d="M 0 3 
C 0.795609 3 1.55874 2.683901 2.12132 2.12132 
C 2.683901 1.55874 3 0.795609 3 0 
C 3 -0.795609 2.683901 -1.55874 2.12132 -2.12132 
C 1.55874 -2.683901 0.795609 -3 0 -3 
C -0.795609 -3 -1.55874 -2.683901 -2.12132 -2.12132 
C -2.683901 -1.55874 -3 -0.795609 -3 0 
C -3 0.795609 -2.683901 1.55874 -2.12132 2.12132 
C -1.55874 2.683901 -0.795609 3 0 3 
z
" id="m778892aa15" style="stroke:#ffa500;"/>
    </defs>
    <g clip-path="url(#p370e7a004f)">
     <use style="fill:#ffa500;stroke:#ffa500;" x="44.2" xlink:href="#m778892aa15" y="120.784729"/>
     <use style="fill:#ffa500;stroke:#ffa500;" x="62.509375" xlink:href="#m778892aa15" y="13.671429"/>
     <use style="fill:#ffa500;stroke:#ffa500;" x="87.776313" xlink:href="#m778892aa15" y="110.073399"/>
     <use style="fill:#ffa500;stroke:#ffa500;" x="113.489999" xlink:href="#m778892aa15" y="76.868276"/>
     <use style="fill:#ffa500;stroke:#ffa500;" x="136.341417" xlink:href="#m778892aa15" y="58.551901"/>
     <use style="fill:#ffa500;stroke:#ffa500;" x="155.019531" xlink:href="#m778892aa15" y="91.6392"/>
     <use style="fill:#ffa500;stroke:#ffa500;" x="169.369619" xlink:href="#m778892aa15" y="71.018819"/>
     <use style="fill:#ffa500;stroke:#ffa500;" x="179.833684" xlink:href="#m778892aa15" y="73.033513"/>
     <use style="fill:#ffa500;stroke:#ffa500;" x="187.09905" xlink:href="#m778892aa15" y="81.530479"/>
     <use style="fill:#ffa500;stroke:#ffa500;" x="191.893221" xlink:href="#m778892aa15" y="72.875862"/>
     <use style="fill:#ffa500;stroke:#ffa500;" x="194.876496" xlink:href="#m778892aa15" y="76.416534"/>
     <use style="fill:#ffa500;stroke:#ffa500;" x="196.596328" xlink:href="#m778892aa15" y="77.557238"/>
     <use style="fill:#ffa500;stroke:#ffa500;" x="197.47806" xlink:href="#m778892aa15" y="74.760268"/>
     <use style="fill:#ffa500;stroke:#ffa500;" x="197.834934" xlink:href="#m778892aa15" y="76.707189"/>
     <use style="fill:#ffa500;stroke:#ffa500;" x="197.886554" xlink:href="#m778892aa15" y="76.353445"/>
     <use style="fill:#ffa500;stroke:#ffa500;" x="197.779352" xlink:href="#m778892aa15" y="75.698354"/>
     <use style="fill:#ffa500;stroke:#ffa500;" x="197.605604" xlink:href="#m778892aa15" y="76.464808"/>
     <use style="fill:#ffa500;stroke:#ffa500;" x="197.419433" xlink:href="#m778892aa15" y="76.102545"/>
     <use style="fill:#ffa500;stroke:#ffa500;" x="197.24939" xlink:href="#m778892aa15" y="76.045355"/>
     <use style="fill:#ffa500;stroke:#ffa500;" x="197.107817" xlink:href="#m778892aa15" y="76.277957"/>
     <use style="fill:#ffa500;stroke:#ffa500;" x="196.997467" xlink:href="#m778892aa15" y="76.09721"/>
    </g>
   </g>
   <g id="patch_3">
    <path d="M 28.942188 143.1 
L 28.942188 7.2 
" style="fill:none;stroke:#000000;stroke-linecap:square;stroke-linejoin:miter;stroke-width:0.8;"/>
   </g>
   <g id="patch_4">
    <path d="M 224.242188 143.1 
L 224.242188 7.2 
" style="fill:none;stroke:#000000;stroke-linecap:square;stroke-linejoin:miter;stroke-width:0.8;"/>
   </g>
   <g id="patch_5">
    <path d="M 28.942188 143.1 
L 224.242188 143.1 
" style="fill:none;stroke:#000000;stroke-linecap:square;stroke-linejoin:miter;stroke-width:0.8;"/>
   </g>
   <g id="patch_6">
    <path d="M 28.942188 7.2 
L 224.242188 7.2 
" style="fill:none;stroke:#000000;stroke-linecap:square;stroke-linejoin:miter;stroke-width:0.8;"/>
   </g>
  </g>
 </g>
 <defs>
  <clipPath id="p370e7a004f">
   <rect height="135.9" width="195.3" x="28.942188" y="7.2"/>
  </clipPath>
 </defs>
</svg>
