<?xml version="1.0" encoding="utf-8" standalone="no"?>
<!DOCTYPE svg PUBLIC "-//W3C//DTD SVG 1.1//EN"
  "http://www.w3.org/Graphics/SVG/1.1/DTD/svg11.dtd">
<!-- Created with matplotlib (https://matplotlib.org/) -->
<svg height="180.65625pt" version="1.1" viewBox="0 0 231.442188 180.65625" width="231.442188pt" xmlns="http://www.w3.org/2000/svg" xmlns:xlink="http://www.w3.org/1999/xlink">
 <metadata>
  <rdf:RDF xmlns:cc="http://creativecommons.org/ns#" xmlns:dc="http://purl.org/dc/elements/1.1/" xmlns:rdf="http://www.w3.org/1999/02/22-rdf-syntax-ns#">
   <cc:Work>
    <dc:type rdf:resource="http://purl.org/dc/dcmitype/StillImage"/>
    <dc:date>2021-07-13T18:54:35.368000</dc:date>
    <dc:format>image/svg+xml</dc:format>
    <dc:creator>
     <cc:Agent>
      <dc:title>Matplotlib v3.3.2, https://matplotlib.org/</dc:title>
     </cc:Agent>
    </dc:creator>
   </cc:Work>
  </rdf:RDF>
 </metadata>
 <defs>
  <style type="text/css">*{stroke-linecap:butt;stroke-linejoin:round;}</style>
 </defs>
 <g id="figure_1">
  <g id="patch_1">
   <path d="M 0 180.65625 
L 231.442188 180.65625 
L 231.442188 0 
L 0 0 
z
" style="fill:none;"/>
  </g>
  <g id="axes_1">
   <g id="patch_2">
    <path d="M 28.942188 143.1 
L 224.242188 143.1 
L 224.242188 7.2 
L 28.942188 7.2 
z
" style="fill:#ffffff;"/>
   </g>
   <g id="matplotlib.axis_1">
    <g id="xtick_1">
     <g id="line2d_1">
      <defs>
       <path d="M 0 0 
L 0 3.5 
" id="m77441342c5" style="stroke:#000000;stroke-width:0.8;"/>
      </defs>
      <g>
       <use style="stroke:#000000;stroke-width:0.8;" x="74.715625" xlink:href="#m77441342c5" y="143.1"/>
      </g>
     </g>
     <g id="text_1">
      <!-- −4 -->
      <g transform="translate(67.344531 157.698438)scale(0.1 -0.1)">
       <defs>
        <path d="M 10.59375 35.5 
L 73.1875 35.5 
L 73.1875 27.203125 
L 10.59375 27.203125 
z
" id="DejaVuSans-8722"/>
        <path d="M 37.796875 64.3125 
L 12.890625 25.390625 
L 37.796875 25.390625 
z
M 35.203125 72.90625 
L 47.609375 72.90625 
L 47.609375 25.390625 
L 58.015625 25.390625 
L 58.015625 17.1875 
L 47.609375 17.1875 
L 47.609375 0 
L 37.796875 0 
L 37.796875 17.1875 
L 4.890625 17.1875 
L 4.890625 26.703125 
z
" id="DejaVuSans-52"/>
       </defs>
       <use xlink:href="#DejaVuSans-8722"/>
       <use x="83.789062" xlink:href="#DejaVuSans-52"/>
      </g>
     </g>
    </g>
    <g id="xtick_2">
     <g id="line2d_2">
      <g>
       <use style="stroke:#000000;stroke-width:0.8;" x="135.746875" xlink:href="#m77441342c5" y="143.1"/>
      </g>
     </g>
     <g id="text_2">
      <!-- −2 -->
      <g transform="translate(128.375781 157.698438)scale(0.1 -0.1)">
       <defs>
        <path d="M 19.1875 8.296875 
L 53.609375 8.296875 
L 53.609375 0 
L 7.328125 0 
L 7.328125 8.296875 
Q 12.9375 14.109375 22.625 23.890625 
Q 32.328125 33.6875 34.8125 36.53125 
Q 39.546875 41.84375 41.421875 45.53125 
Q 43.3125 49.21875 43.3125 52.78125 
Q 43.3125 58.59375 39.234375 62.25 
Q 35.15625 65.921875 28.609375 65.921875 
Q 23.96875 65.921875 18.8125 64.3125 
Q 13.671875 62.703125 7.8125 59.421875 
L 7.8125 69.390625 
Q 13.765625 71.78125 18.9375 73 
Q 24.125 74.21875 28.421875 74.21875 
Q 39.75 74.21875 46.484375 68.546875 
Q 53.21875 62.890625 53.21875 53.421875 
Q 53.21875 48.921875 51.53125 44.890625 
Q 49.859375 40.875 45.40625 35.40625 
Q 44.1875 33.984375 37.640625 27.21875 
Q 31.109375 20.453125 19.1875 8.296875 
z
" id="DejaVuSans-50"/>
       </defs>
       <use xlink:href="#DejaVuSans-8722"/>
       <use x="83.789062" xlink:href="#DejaVuSans-50"/>
      </g>
     </g>
    </g>
    <g id="xtick_3">
     <g id="line2d_3">
      <g>
       <use style="stroke:#000000;stroke-width:0.8;" x="196.778125" xlink:href="#m77441342c5" y="143.1"/>
      </g>
     </g>
     <g id="text_3">
      <!-- 0 -->
      <g transform="translate(193.596875 157.698438)scale(0.1 -0.1)">
       <defs>
        <path d="M 31.78125 66.40625 
Q 24.171875 66.40625 20.328125 58.90625 
Q 16.5 51.421875 16.5 36.375 
Q 16.5 21.390625 20.328125 13.890625 
Q 24.171875 6.390625 31.78125 6.390625 
Q 39.453125 6.390625 43.28125 13.890625 
Q 47.125 21.390625 47.125 36.375 
Q 47.125 51.421875 43.28125 58.90625 
Q 39.453125 66.40625 31.78125 66.40625 
z
M 31.78125 74.21875 
Q 44.046875 74.21875 50.515625 64.515625 
Q 56.984375 54.828125 56.984375 36.375 
Q 56.984375 17.96875 50.515625 8.265625 
Q 44.046875 -1.421875 31.78125 -1.421875 
Q 19.53125 -1.421875 13.0625 8.265625 
Q 6.59375 17.96875 6.59375 36.375 
Q 6.59375 54.828125 13.0625 64.515625 
Q 19.53125 74.21875 31.78125 74.21875 
z
" id="DejaVuSans-48"/>
       </defs>
       <use xlink:href="#DejaVuSans-48"/>
      </g>
     </g>
    </g>
    <g id="text_4">
     <!-- y1 -->
     <g transform="translate(120.451563 171.376563)scale(0.1 -0.1)">
      <defs>
       <path d="M 32.171875 -5.078125 
Q 28.375 -14.84375 24.75 -17.8125 
Q 21.140625 -20.796875 15.09375 -20.796875 
L 7.90625 -20.796875 
L 7.90625 -13.28125 
L 13.1875 -13.28125 
Q 16.890625 -13.28125 18.9375 -11.515625 
Q 21 -9.765625 23.484375 -3.21875 
L 25.09375 0.875 
L 2.984375 54.6875 
L 12.5 54.6875 
L 29.59375 11.921875 
L 46.6875 54.6875 
L 56.203125 54.6875 
z
" id="DejaVuSans-121"/>
       <path d="M 12.40625 8.296875 
L 28.515625 8.296875 
L 28.515625 63.921875 
L 10.984375 60.40625 
L 10.984375 69.390625 
L 28.421875 72.90625 
L 38.28125 72.90625 
L 38.28125 8.296875 
L 54.390625 8.296875 
L 54.390625 0 
L 12.40625 0 
z
" id="DejaVuSans-49"/>
      </defs>
      <use xlink:href="#DejaVuSans-121"/>
      <use x="59.179688" xlink:href="#DejaVuSans-49"/>
     </g>
    </g>
   </g>
   <g id="matplotlib.axis_2">
    <g id="ytick_1">
     <g id="line2d_4">
      <defs>
       <path d="M 0 0 
L -3.5 0 
" id="m178c2de66f" style="stroke:#000000;stroke-width:0.8;"/>
      </defs>
      <g>
       <use style="stroke:#000000;stroke-width:0.8;" x="28.942188" xlink:href="#m178c2de66f" y="143.1"/>
      </g>
     </g>
     <g id="text_5">
      <!-- −3 -->
      <g transform="translate(7.2 146.899219)scale(0.1 -0.1)">
       <defs>
        <path d="M 40.578125 39.3125 
Q 47.65625 37.796875 51.625 33 
Q 55.609375 28.21875 55.609375 21.1875 
Q 55.609375 10.40625 48.1875 4.484375 
Q 40.765625 -1.421875 27.09375 -1.421875 
Q 22.515625 -1.421875 17.65625 -0.515625 
Q 12.796875 0.390625 7.625 2.203125 
L 7.625 11.71875 
Q 11.71875 9.328125 16.59375 8.109375 
Q 21.484375 6.890625 26.8125 6.890625 
Q 36.078125 6.890625 40.9375 10.546875 
Q 45.796875 14.203125 45.796875 21.1875 
Q 45.796875 27.640625 41.28125 31.265625 
Q 36.765625 34.90625 28.71875 34.90625 
L 20.21875 34.90625 
L 20.21875 43.015625 
L 29.109375 43.015625 
Q 36.375 43.015625 40.234375 45.921875 
Q 44.09375 48.828125 44.09375 54.296875 
Q 44.09375 59.90625 40.109375 62.90625 
Q 36.140625 65.921875 28.71875 65.921875 
Q 24.65625 65.921875 20.015625 65.03125 
Q 15.375 64.15625 9.8125 62.3125 
L 9.8125 71.09375 
Q 15.4375 72.65625 20.34375 73.4375 
Q 25.25 74.21875 29.59375 74.21875 
Q 40.828125 74.21875 47.359375 69.109375 
Q 53.90625 64.015625 53.90625 55.328125 
Q 53.90625 49.265625 50.4375 45.09375 
Q 46.96875 40.921875 40.578125 39.3125 
z
" id="DejaVuSans-51"/>
       </defs>
       <use xlink:href="#DejaVuSans-8722"/>
       <use x="83.789062" xlink:href="#DejaVuSans-51"/>
      </g>
     </g>
    </g>
    <g id="ytick_2">
     <g id="line2d_5">
      <g>
       <use style="stroke:#000000;stroke-width:0.8;" x="28.942188" xlink:href="#m178c2de66f" y="108.253846"/>
      </g>
     </g>
     <g id="text_6">
      <!-- −2 -->
      <g transform="translate(7.2 112.053065)scale(0.1 -0.1)">
       <use xlink:href="#DejaVuSans-8722"/>
       <use x="83.789062" xlink:href="#DejaVuSans-50"/>
      </g>
     </g>
    </g>
    <g id="ytick_3">
     <g id="line2d_6">
      <g>
       <use style="stroke:#000000;stroke-width:0.8;" x="28.942188" xlink:href="#m178c2de66f" y="73.407692"/>
      </g>
     </g>
     <g id="text_7">
      <!-- −1 -->
      <g transform="translate(7.2 77.206911)scale(0.1 -0.1)">
       <use xlink:href="#DejaVuSans-8722"/>
       <use x="83.789062" xlink:href="#DejaVuSans-49"/>
      </g>
     </g>
    </g>
    <g id="ytick_4">
     <g id="line2d_7">
      <g>
       <use style="stroke:#000000;stroke-width:0.8;" x="28.942188" xlink:href="#m178c2de66f" y="38.561538"/>
      </g>
     </g>
     <g id="text_8">
      <!-- 0 -->
      <g transform="translate(15.579688 42.360757)scale(0.1 -0.1)">
       <use xlink:href="#DejaVuSans-48"/>
      </g>
     </g>
    </g>
   </g>
   <g id="LineCollection_1"/>
   <g id="LineCollection_2">
    <path clip-path="url(#p963f0cd944)" d="M 224.242188 104.627963 
L 223.703676 104.769231 
L 221.190625 105.394675 
L 218.139063 106.064793 
L 215.0875 106.645562 
L 212.035938 107.136982 
L 208.984375 107.539053 
L 205.932813 107.851775 
L 202.88125 108.075148 
L 199.829688 108.209172 
L 196.778125 108.253846 
L 196.778125 108.253846 
L 196.778125 108.253846 
L 193.726563 108.209172 
L 190.675 108.075148 
L 187.623438 107.851775 
L 184.571875 107.539053 
L 181.520313 107.136982 
L 178.46875 106.645562 
L 175.417188 106.064793 
L 172.365625 105.394675 
L 169.852574 104.769231 
L 169.314063 104.627963 
L 166.2625 103.733264 
L 163.210938 102.744387 
L 160.159375 101.661331 
L 159.182875 101.284615 
L 157.107813 100.438352 
L 154.05625 99.094286 
L 151.320366 97.8 
L 151.004688 97.641608 
L 147.953125 96.004895 
L 144.994034 94.315385 
L 144.901563 94.259181 
L 141.85 92.29206 
L 139.705659 90.830769 
L 138.798438 90.169894 
L 135.746875 87.82679 
L 135.151448 87.346154 
L 132.695312 85.216667 
L 131.205015 83.861538 
L 129.64375 82.328308 
L 127.745 80.376923 
L 126.592188 79.08913 
L 124.709309 76.892308 
L 123.540625 75.398901 
L 122.045982 73.407692 
L 120.489063 71.115182 
L 119.711213 69.923077 
L 117.676838 66.438462 
L 117.4375 65.973846 
L 115.940507 62.953846 
L 114.443514 59.469231 
L 114.385938 59.310839 
L 113.220795 55.984615 
L 112.222102 52.5 
L 111.445341 49.015385 
L 111.334375 48.318462 
L 110.906086 45.530769 
L 110.584868 42.046154 
L 110.477796 38.561538 
L 110.584868 35.076923 
L 110.906086 31.592308 
L 111.334375 28.804615 
L 111.445341 28.107692 
L 112.222102 24.623077 
L 113.220795 21.138462 
L 114.385938 17.812238 
L 114.443514 17.653846 
L 115.940507 14.169231 
L 117.4375 11.149231 
L 117.676838 10.684615 
L 119.711213 7.2 
" style="fill:none;stroke:#46327e;stroke-width:1.5;"/>
   </g>
   <g id="LineCollection_3">
    <path clip-path="url(#p963f0cd944)" d="M 224.242188 134.578531 
L 221.190625 135.117063 
L 218.139063 135.592238 
L 215.0875 136.004056 
L 213.977841 136.130769 
L 212.035938 136.344737 
L 208.984375 136.619838 
L 205.932813 136.833806 
L 202.88125 136.98664 
L 199.829688 137.07834 
L 196.778125 137.108907 
L 193.726563 137.07834 
L 190.675 136.98664 
L 187.623438 136.833806 
L 184.571875 136.619838 
L 181.520313 136.344737 
L 179.578409 136.130769 
L 178.46875 136.004056 
L 175.417188 135.592238 
L 172.365625 135.117063 
L 169.314063 134.578531 
L 166.2625 133.976643 
L 163.210938 133.311399 
L 160.424728 132.646154 
L 160.159375 132.580406 
L 157.107813 131.758563 
L 154.05625 130.870972 
L 151.004688 129.917634 
L 148.740625 129.161538 
L 147.953125 128.888235 
L 144.901563 127.76086 
L 141.85 126.565158 
L 139.705659 125.676923 
L 138.798438 125.285793 
L 135.746875 123.899058 
L 132.695312 122.441209 
L 132.198547 122.192308 
L 129.64375 120.857774 
L 126.592188 119.189607 
L 125.748138 118.707692 
L 123.540625 117.391282 
L 120.489063 115.494103 
L 120.070221 115.223077 
L 117.4375 113.44025 
L 115.019281 111.738462 
L 114.385938 111.271013 
L 111.334375 108.933771 
L 110.477796 108.253846 
L 108.282813 106.422189 
L 106.369121 104.769231 
L 105.23125 103.733264 
L 102.629918 101.284615 
L 102.179688 100.836593 
L 99.225 97.8 
L 99.128125 97.694406 
L 96.12351 94.315385 
L 96.076563 94.259181 
L 93.298274 90.830769 
L 93.025 90.470292 
L 90.725272 87.346154 
L 89.973438 86.249145 
L 88.383187 83.861538 
L 86.921875 81.492 
L 86.253039 80.376923 
L 84.330137 76.892308 
L 83.870312 75.97967 
L 82.609 73.407692 
L 81.062875 69.923077 
L 80.81875 69.308145 
L 79.709091 66.438462 
L 78.52017 62.953846 
L 77.767188 60.407396 
L 77.496796 59.469231 
L 76.646994 55.984615 
L 75.951701 52.5 
L 75.410918 49.015385 
L 75.024644 45.530769 
L 74.79288 42.046154 
L 74.715625 38.561538 
L 74.79288 35.076923 
L 75.024644 31.592308 
L 75.410918 28.107692 
L 75.951701 24.623077 
L 76.646994 21.138462 
L 77.496796 17.653846 
L 77.767188 16.71568 
L 78.52017 14.169231 
L 79.709091 10.684615 
L 80.81875 7.814932 
L 81.062875 7.2 
" style="fill:none;stroke:#365c8d;stroke-width:1.5;"/>
   </g>
   <g id="LineCollection_4">
    <path clip-path="url(#p963f0cd944)" d="M 122.045982 143.1 
L 120.489063 142.361734 
L 117.4375 140.855671 
L 115.019281 139.615385 
L 114.385938 139.27915 
L 111.334375 137.597976 
L 108.764638 136.130769 
L 108.282813 135.845664 
L 105.23125 133.976643 
L 103.130174 132.646154 
L 102.179688 132.021553 
L 99.128125 129.950508 
L 98.001394 129.161538 
L 96.076563 127.76086 
L 93.298274 125.676923 
L 93.025 125.463579 
L 89.973438 123.010126 
L 88.984903 122.192308 
L 86.921875 120.41293 
L 84.998973 118.707692 
L 83.870313 117.662308 
L 81.307 115.223077 
L 80.81875 114.736852 
L 77.88608 111.738462 
L 77.767188 111.610976 
L 74.715625 108.253846 
L 74.715625 108.253846 
L 71.777083 104.769231 
L 71.664063 104.627963 
L 69.05369 101.284615 
L 68.6125 100.687253 
L 66.530257 97.8 
L 65.560938 96.374476 
L 64.192996 94.315385 
L 62.509375 91.617618 
L 62.029354 90.830769 
L 60.040695 87.346154 
L 59.457813 86.249145 
L 58.217067 83.861538 
L 56.540385 80.376923 
L 56.40625 80.073913 
L 55.028125 76.892308 
L 53.65 73.407692 
L 53.354688 72.582389 
L 52.423158 69.923077 
L 51.33102 66.438462 
L 50.367368 62.953846 
L 50.303125 62.685799 
L 49.548099 59.469231 
L 48.855992 55.984615 
L 48.289723 52.5 
L 47.849291 49.015385 
L 47.534697 45.530769 
L 47.345941 42.046154 
L 47.283022 38.561538 
L 47.345941 35.076923 
L 47.534697 31.592308 
L 47.849291 28.107692 
L 48.289723 24.623077 
L 48.855992 21.138462 
L 49.548099 17.653846 
L 50.303125 14.437278 
L 50.367368 14.169231 
L 51.33102 10.684615 
L 52.423158 7.2 
" style="fill:none;stroke:#277f8e;stroke-width:1.5;"/>
   </g>
   <g id="LineCollection_5">
    <path clip-path="url(#p963f0cd944)" d="M 82.609 143.1 
L 80.81875 141.800652 
L 77.88608 139.615385 
L 77.767188 139.523684 
L 74.715625 137.108907 
L 73.510069 136.130769 
L 71.664063 134.578531 
L 69.421348 132.646154 
L 68.6125 131.922932 
L 65.596838 129.161538 
L 65.560938 129.127376 
L 62.509375 126.155204 
L 62.029354 125.676923 
L 59.457813 123.010126 
L 58.686538 122.192308 
L 56.40625 119.671522 
L 55.553125 118.707692 
L 53.354688 116.11359 
L 52.615888 115.223077 
L 50.303125 112.305725 
L 49.862693 111.738462 
L 47.283022 108.253846 
L 47.251562 108.209172 
L 44.878125 104.769231 
L 44.2 103.733264 
L 42.628899 101.284615 
L 41.148438 98.845385 
L 40.526274 97.8 
L 38.570904 94.315385 
L 38.096875 93.416129 
L 36.76 90.830769 
L 35.074375 87.346154 
L 35.045312 87.281624 
L 33.533791 83.861538 
L 32.107827 80.376923 
L 31.99375 80.073913 
L 30.817919 76.892308 
L 29.642087 73.407692 
L 28.942188 71.115182 
" style="fill:none;stroke:#1fa187;stroke-width:1.5;"/>
   </g>
   <g id="LineCollection_6">
    <path clip-path="url(#p963f0cd944)" d="M 53.65 143.1 
L 53.354688 142.834224 
L 50.303125 140.028814 
L 49.862693 139.615385 
L 47.251563 137.07834 
L 46.296023 136.130769 
L 44.2 133.976643 
L 42.931033 132.646154 
L 41.148438 130.706604 
L 39.755977 129.161538 
L 38.096875 127.248416 
L 36.76 125.676923 
L 35.045312 123.579042 
L 33.933061 122.192308 
L 31.99375 119.671522 
L 31.265854 118.707692 
L 28.942188 115.494103 
" style="fill:none;stroke:#4ac16d;stroke-width:1.5;"/>
   </g>
   <g id="LineCollection_7">
    <path clip-path="url(#p963f0cd944)" d="M 29.642087 143.1 
L 28.942188 142.361734 
" style="fill:none;stroke:#a0da39;stroke-width:1.5;"/>
   </g>
   <g id="LineCollection_8"/>
   <g id="line2d_8">
    <path clip-path="url(#p963f0cd944)" d="M 44.2 108.253846 
L 77.526451 82.495243 
L 104.66536 68.174208 
L 120.884165 59.910564 
L 133.463757 45.387523 
L 141.139055 41.362289 
L 150.110837 39.311263 
L 153.491755 34.499573 
L 163.742331 35.580692 
L 176.735356 40.00263 
L 180.400794 33.662769 
L 185.450147 37.139283 
L 185.416724 37.818639 
L 184.572691 42.276276 
L 187.633509 46.630613 
L 189.314644 40.458299 
L 192.991221 43.809589 
L 194.38768 40.983255 
L 197.624285 40.559445 
L 194.767258 32.010592 
L 193.561847 36.987741 
" style="fill:none;stroke:#ffa500;stroke-linecap:square;stroke-width:1.5;"/>
    <defs>
     <path d="M 0 3 
C 0.795609 3 1.55874 2.683901 2.12132 2.12132 
C 2.683901 1.55874 3 0.795609 3 0 
C 3 -0.795609 2.683901 -1.55874 2.12132 -2.12132 
C 1.55874 -2.683901 0.795609 -3 0 -3 
C -0.795609 -3 -1.55874 -2.683901 -2.12132 -2.12132 
C -2.683901 -1.55874 -3 -0.795609 -3 0 
C -3 0.795609 -2.683901 1.55874 -2.12132 2.12132 
C -1.55874 2.683901 -0.795609 3 0 3 
z
" id="m7d7d5c5af5" style="stroke:#ffa500;"/>
    </defs>
    <g clip-path="url(#p963f0cd944)">
     <use style="fill:#ffa500;stroke:#ffa500;" x="44.2" xlink:href="#m7d7d5c5af5" y="108.253846"/>
     <use style="fill:#ffa500;stroke:#ffa500;" x="77.526451" xlink:href="#m7d7d5c5af5" y="82.495243"/>
     <use style="fill:#ffa500;stroke:#ffa500;" x="104.66536" xlink:href="#m7d7d5c5af5" y="68.174208"/>
     <use style="fill:#ffa500;stroke:#ffa500;" x="120.884165" xlink:href="#m7d7d5c5af5" y="59.910564"/>
     <use style="fill:#ffa500;stroke:#ffa500;" x="133.463757" xlink:href="#m7d7d5c5af5" y="45.387523"/>
     <use style="fill:#ffa500;stroke:#ffa500;" x="141.139055" xlink:href="#m7d7d5c5af5" y="41.362289"/>
     <use style="fill:#ffa500;stroke:#ffa500;" x="150.110837" xlink:href="#m7d7d5c5af5" y="39.311263"/>
     <use style="fill:#ffa500;stroke:#ffa500;" x="153.491755" xlink:href="#m7d7d5c5af5" y="34.499573"/>
     <use style="fill:#ffa500;stroke:#ffa500;" x="163.742331" xlink:href="#m7d7d5c5af5" y="35.580692"/>
     <use style="fill:#ffa500;stroke:#ffa500;" x="176.735356" xlink:href="#m7d7d5c5af5" y="40.00263"/>
     <use style="fill:#ffa500;stroke:#ffa500;" x="180.400794" xlink:href="#m7d7d5c5af5" y="33.662769"/>
     <use style="fill:#ffa500;stroke:#ffa500;" x="185.450147" xlink:href="#m7d7d5c5af5" y="37.139283"/>
     <use style="fill:#ffa500;stroke:#ffa500;" x="185.416724" xlink:href="#m7d7d5c5af5" y="37.818639"/>
     <use style="fill:#ffa500;stroke:#ffa500;" x="184.572691" xlink:href="#m7d7d5c5af5" y="42.276276"/>
     <use style="fill:#ffa500;stroke:#ffa500;" x="187.633509" xlink:href="#m7d7d5c5af5" y="46.630613"/>
     <use style="fill:#ffa500;stroke:#ffa500;" x="189.314644" xlink:href="#m7d7d5c5af5" y="40.458299"/>
     <use style="fill:#ffa500;stroke:#ffa500;" x="192.991221" xlink:href="#m7d7d5c5af5" y="43.809589"/>
     <use style="fill:#ffa500;stroke:#ffa500;" x="194.38768" xlink:href="#m7d7d5c5af5" y="40.983255"/>
     <use style="fill:#ffa500;stroke:#ffa500;" x="197.624285" xlink:href="#m7d7d5c5af5" y="40.559445"/>
     <use style="fill:#ffa500;stroke:#ffa500;" x="194.767258" xlink:href="#m7d7d5c5af5" y="32.010592"/>
     <use style="fill:#ffa500;stroke:#ffa500;" x="193.561847" xlink:href="#m7d7d5c5af5" y="36.987741"/>
    </g>
   </g>
   <g id="patch_3">
    <path d="M 28.942188 143.1 
L 28.942188 7.2 
" style="fill:none;stroke:#000000;stroke-linecap:square;stroke-linejoin:miter;stroke-width:0.8;"/>
   </g>
   <g id="patch_4">
    <path d="M 224.242188 143.1 
L 224.242188 7.2 
" style="fill:none;stroke:#000000;stroke-linecap:square;stroke-linejoin:miter;stroke-width:0.8;"/>
   </g>
   <g id="patch_5">
    <path d="M 28.942188 143.1 
L 224.242188 143.1 
" style="fill:none;stroke:#000000;stroke-linecap:square;stroke-linejoin:miter;stroke-width:0.8;"/>
   </g>
   <g id="patch_6">
    <path d="M 28.942188 7.2 
L 224.242188 7.2 
" style="fill:none;stroke:#000000;stroke-linecap:square;stroke-linejoin:miter;stroke-width:0.8;"/>
   </g>
  </g>
 </g>
 <defs>
  <clipPath id="p963f0cd944">
   <rect height="135.9" width="195.3" x="28.942188" y="7.2"/>
  </clipPath>
 </defs>
</svg>
