<?xml version="1.0" encoding="utf-8" standalone="no"?>
<!DOCTYPE svg PUBLIC "-//W3C//DTD SVG 1.1//EN"
  "http://www.w3.org/Graphics/SVG/1.1/DTD/svg11.dtd">
<!-- Created with matplotlib (https://matplotlib.org/) -->
<svg height="180.65625pt" version="1.1" viewBox="0 0 250.529687 180.65625" width="250.529687pt" xmlns="http://www.w3.org/2000/svg" xmlns:xlink="http://www.w3.org/1999/xlink">
 <metadata>
  <rdf:RDF xmlns:cc="http://creativecommons.org/ns#" xmlns:dc="http://purl.org/dc/elements/1.1/" xmlns:rdf="http://www.w3.org/1999/02/22-rdf-syntax-ns#">
   <cc:Work>
    <dc:type rdf:resource="http://purl.org/dc/dcmitype/StillImage"/>
    <dc:date>2021-07-13T18:54:36.906024</dc:date>
    <dc:format>image/svg+xml</dc:format>
    <dc:creator>
     <cc:Agent>
      <dc:title>Matplotlib v3.3.2, https://matplotlib.org/</dc:title>
     </cc:Agent>
    </dc:creator>
   </cc:Work>
  </rdf:RDF>
 </metadata>
 <defs>
  <style type="text/css">*{stroke-linecap:butt;stroke-linejoin:round;}</style>
 </defs>
 <g id="figure_1">
  <g id="patch_1">
   <path d="M -0 180.65625 
L 250.529688 180.65625 
L 250.529688 0 
L -0 0 
z
" style="fill:none;"/>
  </g>
  <g id="axes_1">
   <g id="patch_2">
    <path d="M 48.029688 143.1 
L 243.329688 143.1 
L 243.329688 7.2 
L 48.029688 7.2 
z
" style="fill:#ffffff;"/>
   </g>
   <g id="matplotlib.axis_1">
    <g id="xtick_1">
     <g id="line2d_1">
      <defs>
       <path d="M 0 0 
L 0 3.5 
" id="me209e7d273" style="stroke:#000000;stroke-width:0.8;"/>
      </defs>
      <g>
       <use style="stroke:#000000;stroke-width:0.8;" x="90.952764" xlink:href="#me209e7d273" y="143.1"/>
      </g>
     </g>
     <g id="text_1">
      <!-- −4 -->
      <g transform="translate(83.581671 157.698438)scale(0.1 -0.1)">
       <defs>
        <path d="M 10.59375 35.5 
L 73.1875 35.5 
L 73.1875 27.203125 
L 10.59375 27.203125 
z
" id="DejaVuSans-8722"/>
        <path d="M 37.796875 64.3125 
L 12.890625 25.390625 
L 37.796875 25.390625 
z
M 35.203125 72.90625 
L 47.609375 72.90625 
L 47.609375 25.390625 
L 58.015625 25.390625 
L 58.015625 17.1875 
L 47.609375 17.1875 
L 47.609375 0 
L 37.796875 0 
L 37.796875 17.1875 
L 4.890625 17.1875 
L 4.890625 26.703125 
z
" id="DejaVuSans-52"/>
       </defs>
       <use xlink:href="#DejaVuSans-8722"/>
       <use x="83.789062" xlink:href="#DejaVuSans-52"/>
      </g>
     </g>
    </g>
    <g id="xtick_2">
     <g id="line2d_2">
      <g>
       <use style="stroke:#000000;stroke-width:0.8;" x="148.183534" xlink:href="#me209e7d273" y="143.1"/>
      </g>
     </g>
     <g id="text_2">
      <!-- −2 -->
      <g transform="translate(140.81244 157.698438)scale(0.1 -0.1)">
       <defs>
        <path d="M 19.1875 8.296875 
L 53.609375 8.296875 
L 53.609375 0 
L 7.328125 0 
L 7.328125 8.296875 
Q 12.9375 14.109375 22.625 23.890625 
Q 32.328125 33.6875 34.8125 36.53125 
Q 39.546875 41.84375 41.421875 45.53125 
Q 43.3125 49.21875 43.3125 52.78125 
Q 43.3125 58.59375 39.234375 62.25 
Q 35.15625 65.921875 28.609375 65.921875 
Q 23.96875 65.921875 18.8125 64.3125 
Q 13.671875 62.703125 7.8125 59.421875 
L 7.8125 69.390625 
Q 13.765625 71.78125 18.9375 73 
Q 24.125 74.21875 28.421875 74.21875 
Q 39.75 74.21875 46.484375 68.546875 
Q 53.21875 62.890625 53.21875 53.421875 
Q 53.21875 48.921875 51.53125 44.890625 
Q 49.859375 40.875 45.40625 35.40625 
Q 44.1875 33.984375 37.640625 27.21875 
Q 31.109375 20.453125 19.1875 8.296875 
z
" id="DejaVuSans-50"/>
       </defs>
       <use xlink:href="#DejaVuSans-8722"/>
       <use x="83.789062" xlink:href="#DejaVuSans-50"/>
      </g>
     </g>
    </g>
    <g id="xtick_3">
     <g id="line2d_3">
      <g>
       <use style="stroke:#000000;stroke-width:0.8;" x="205.414303" xlink:href="#me209e7d273" y="143.1"/>
      </g>
     </g>
     <g id="text_3">
      <!-- 0 -->
      <g transform="translate(202.233053 157.698438)scale(0.1 -0.1)">
       <defs>
        <path d="M 31.78125 66.40625 
Q 24.171875 66.40625 20.328125 58.90625 
Q 16.5 51.421875 16.5 36.375 
Q 16.5 21.390625 20.328125 13.890625 
Q 24.171875 6.390625 31.78125 6.390625 
Q 39.453125 6.390625 43.28125 13.890625 
Q 47.125 21.390625 47.125 36.375 
Q 47.125 51.421875 43.28125 58.90625 
Q 39.453125 66.40625 31.78125 66.40625 
z
M 31.78125 74.21875 
Q 44.046875 74.21875 50.515625 64.515625 
Q 56.984375 54.828125 56.984375 36.375 
Q 56.984375 17.96875 50.515625 8.265625 
Q 44.046875 -1.421875 31.78125 -1.421875 
Q 19.53125 -1.421875 13.0625 8.265625 
Q 6.59375 17.96875 6.59375 36.375 
Q 6.59375 54.828125 13.0625 64.515625 
Q 19.53125 74.21875 31.78125 74.21875 
z
" id="DejaVuSans-48"/>
       </defs>
       <use xlink:href="#DejaVuSans-48"/>
      </g>
     </g>
    </g>
    <g id="text_4">
     <!-- y1 -->
     <g transform="translate(139.539063 171.376563)scale(0.1 -0.1)">
      <defs>
       <path d="M 32.171875 -5.078125 
Q 28.375 -14.84375 24.75 -17.8125 
Q 21.140625 -20.796875 15.09375 -20.796875 
L 7.90625 -20.796875 
L 7.90625 -13.28125 
L 13.1875 -13.28125 
Q 16.890625 -13.28125 18.9375 -11.515625 
Q 21 -9.765625 23.484375 -3.21875 
L 25.09375 0.875 
L 2.984375 54.6875 
L 12.5 54.6875 
L 29.59375 11.921875 
L 46.6875 54.6875 
L 56.203125 54.6875 
z
" id="DejaVuSans-121"/>
       <path d="M 12.40625 8.296875 
L 28.515625 8.296875 
L 28.515625 63.921875 
L 10.984375 60.40625 
L 10.984375 69.390625 
L 28.421875 72.90625 
L 38.28125 72.90625 
L 38.28125 8.296875 
L 54.390625 8.296875 
L 54.390625 0 
L 12.40625 0 
z
" id="DejaVuSans-49"/>
      </defs>
      <use xlink:href="#DejaVuSans-121"/>
      <use x="59.179688" xlink:href="#DejaVuSans-49"/>
     </g>
    </g>
   </g>
   <g id="matplotlib.axis_2">
    <g id="ytick_1">
     <g id="line2d_4">
      <defs>
       <path d="M 0 0 
L -3.5 0 
" id="m65cad86907" style="stroke:#000000;stroke-width:0.8;"/>
      </defs>
      <g>
       <use style="stroke:#000000;stroke-width:0.8;" x="48.029688" xlink:href="#m65cad86907" y="107.922362"/>
      </g>
     </g>
     <g id="text_5">
      <!-- −1000 -->
      <g transform="translate(7.2 111.721581)scale(0.1 -0.1)">
       <use xlink:href="#DejaVuSans-8722"/>
       <use x="83.789062" xlink:href="#DejaVuSans-49"/>
       <use x="147.412109" xlink:href="#DejaVuSans-48"/>
       <use x="211.035156" xlink:href="#DejaVuSans-48"/>
       <use x="274.658203" xlink:href="#DejaVuSans-48"/>
      </g>
     </g>
    </g>
    <g id="ytick_2">
     <g id="line2d_5">
      <g>
       <use style="stroke:#000000;stroke-width:0.8;" x="48.029688" xlink:href="#m65cad86907" y="64.854545"/>
      </g>
     </g>
     <g id="text_6">
      <!-- 0 -->
      <g transform="translate(34.667187 68.653764)scale(0.1 -0.1)">
       <use xlink:href="#DejaVuSans-48"/>
      </g>
     </g>
    </g>
    <g id="ytick_3">
     <g id="line2d_6">
      <g>
       <use style="stroke:#000000;stroke-width:0.8;" x="48.029688" xlink:href="#m65cad86907" y="21.786729"/>
      </g>
     </g>
     <g id="text_7">
      <!-- 1000 -->
      <g transform="translate(15.579687 25.585947)scale(0.1 -0.1)">
       <use xlink:href="#DejaVuSans-49"/>
       <use x="63.623047" xlink:href="#DejaVuSans-48"/>
       <use x="127.246094" xlink:href="#DejaVuSans-48"/>
       <use x="190.869141" xlink:href="#DejaVuSans-48"/>
      </g>
     </g>
    </g>
   </g>
   <g id="LineCollection_1"/>
   <g id="LineCollection_2">
    <path clip-path="url(#p885b00532f)" d="M 231.168149 64.906563 
L 228.306611 64.906709 
L 225.445072 64.906838 
L 222.583534 64.90695 
L 219.721995 64.907045 
L 216.860457 64.907123 
L 213.998918 64.907183 
L 211.13738 64.907226 
L 208.275841 64.907252 
L 205.414303 64.90726 
L 202.552764 64.907252 
L 199.691226 64.907226 
L 196.829687 64.907183 
L 193.968149 64.907123 
L 191.106611 64.907045 
L 188.245072 64.90695 
L 185.383534 64.906838 
L 182.521995 64.906709 
L 179.660457 64.906563 
L 176.798918 64.906399 
L 174.073644 64.906227 
L 173.93738 64.906217 
L 171.075841 64.906002 
L 168.214303 64.905768 
L 165.352764 64.905515 
L 162.491226 64.905244 
L 159.629687 64.904954 
L 156.768149 64.904645 
L 153.906611 64.904317 
L 151.045072 64.90397 
L 148.183534 64.903605 
L 145.321995 64.903221 
L 142.460457 64.902819 
L 139.598918 64.902398 
L 136.73738 64.901958 
L 136.503785 64.90192 
L 133.875841 64.901459 
L 131.014303 64.900936 
L 128.152764 64.900392 
L 125.291226 64.899828 
L 122.429687 64.899244 
L 119.568149 64.898639 
L 116.706611 64.898013 
L 114.935182 64.897613 
L 113.845072 64.897341 
L 110.983534 64.896605 
L 108.121995 64.895845 
L 105.260457 64.895063 
L 102.398918 64.894259 
L 99.53738 64.893431 
L 99.117687 64.893306 
L 96.675841 64.892496 
L 93.814303 64.89152 
L 90.952764 64.89052 
L 88.091226 64.889494 
L 86.746648 64.889 
L 85.229687 64.888368 
L 82.368149 64.887148 
L 79.506611 64.885899 
L 76.805833 64.884693 
L 76.645072 64.88461 
L 73.783534 64.883103 
L 70.921995 64.881562 
L 68.783372 64.880386 
L 68.060457 64.879916 
L 65.198918 64.878017 
L 62.33738 64.876079 
L 62.33738 64.876079 
L 59.475841 64.873663 
L 57.281069 64.871773 
L 56.614303 64.871034 
L 53.752764 64.867804 
L 53.458588 64.867466 
L 50.891226 64.863331 
L 50.786215 64.863159 
L 49.211057 64.858852 
L 48.686004 64.854545 
L 49.211057 64.850239 
L 50.786215 64.845932 
L 50.891226 64.84576 
L 53.458588 64.841625 
L 53.752764 64.841287 
L 56.614303 64.838057 
L 57.281069 64.837318 
L 59.475841 64.835428 
L 62.33738 64.833012 
L 62.33738 64.833012 
L 65.198918 64.831073 
L 68.060457 64.829175 
L 68.783372 64.828705 
L 70.921995 64.827529 
L 73.783534 64.825988 
L 76.645072 64.824481 
L 76.805833 64.824398 
L 79.506611 64.823192 
L 82.368149 64.821943 
L 85.229687 64.820723 
L 86.746648 64.820091 
L 88.091226 64.819597 
L 90.952764 64.818571 
L 93.814303 64.81757 
L 96.675841 64.816595 
L 99.117688 64.815784 
" style="fill:none;stroke:#472d7b;stroke-width:1.5;"/>
   </g>
   <g id="LineCollection_3">
    <path clip-path="url(#p885b00532f)" d="M 231.168149 64.928616 
L 228.306611 64.928721 
L 225.445072 64.928813 
L 222.583534 64.928893 
L 219.721995 64.92896 
L 216.860457 64.929016 
L 213.998918 64.929059 
L 211.13738 64.92909 
L 208.275841 64.929108 
L 205.414303 64.929114 
L 202.552764 64.929108 
L 199.691226 64.92909 
L 196.829687 64.929059 
L 193.968149 64.929016 
L 191.106611 64.92896 
L 188.245072 64.928893 
L 185.383534 64.928813 
L 182.521995 64.928721 
L 179.660457 64.928616 
L 176.798918 64.928499 
L 173.93738 64.92837 
L 171.075841 64.928228 
L 168.214303 64.928075 
L 165.352764 64.927908 
L 162.984595 64.927761 
L 162.491226 64.927728 
L 159.629687 64.927526 
L 156.768149 64.92731 
L 153.906611 64.927082 
L 151.045072 64.926841 
L 148.183534 64.926586 
L 145.321995 64.926319 
L 142.460457 64.926038 
L 139.598918 64.925744 
L 136.73738 64.925438 
L 133.875841 64.925118 
L 131.014303 64.924785 
L 128.152764 64.924439 
L 125.291226 64.92408 
L 122.429687 64.923708 
L 120.538162 64.923454 
L 119.568149 64.923315 
L 116.706611 64.922891 
L 113.845072 64.922454 
L 110.983534 64.922002 
L 108.121995 64.921537 
L 105.260457 64.921057 
L 102.398918 64.920564 
L 99.53738 64.920057 
L 96.675841 64.919536 
L 94.594722 64.919147 
L 93.814303 64.918991 
L 90.952764 64.918405 
L 88.091226 64.917803 
L 85.229687 64.917187 
L 82.368149 64.916556 
L 79.506611 64.91591 
L 76.645072 64.915249 
L 74.915571 64.91484 
L 73.783534 64.914553 
L 70.921995 64.913812 
L 68.060457 64.913054 
L 65.198918 64.91228 
L 62.33738 64.911491 
L 59.475841 64.910685 
L 58.947985 64.910534 
L 56.614303 64.90981 
L 53.752764 64.908906 
L 50.891226 64.907984 
L 48.029687 64.907045 
" style="fill:none;stroke:#3b528b;stroke-width:1.5;"/>
   </g>
   <g id="LineCollection_4">
    <path clip-path="url(#p885b00532f)" d="M 231.168149 64.945484 
L 228.306611 64.945569 
L 225.445072 64.945644 
L 222.583534 64.945709 
L 219.721995 64.945764 
L 216.860457 64.945809 
L 213.998918 64.945844 
L 211.13738 64.945869 
L 208.275841 64.945884 
L 205.414303 64.945889 
L 202.552764 64.945884 
L 199.691226 64.945869 
L 196.829687 64.945844 
L 193.968149 64.945809 
L 191.106611 64.945764 
L 188.245072 64.945709 
L 185.383534 64.945644 
L 182.521995 64.945569 
L 179.660457 64.945484 
L 176.798918 64.945389 
L 173.93738 64.945283 
L 171.075841 64.945168 
L 168.214303 64.945043 
L 167.048491 64.944988 
L 165.352764 64.944904 
L 162.491226 64.944752 
L 159.629687 64.944589 
L 156.768149 64.944415 
L 153.906611 64.944232 
L 151.045072 64.944037 
L 148.183534 64.943832 
L 145.321995 64.943617 
L 142.460457 64.943391 
L 139.598918 64.943155 
L 136.73738 64.942908 
L 133.875841 64.942651 
L 131.014303 64.942383 
L 128.152764 64.942104 
L 125.291226 64.941816 
L 122.429687 64.941516 
L 119.568149 64.941206 
L 116.706611 64.940886 
L 114.935182 64.940681 
L 113.845072 64.940549 
L 110.983534 64.94019 
L 108.121995 64.93982 
L 105.260457 64.939439 
L 102.398918 64.939047 
L 99.53738 64.938644 
L 96.675841 64.93823 
L 93.814303 64.937804 
L 90.952764 64.937368 
L 88.091226 64.936921 
L 85.229687 64.936463 
L 84.691045 64.936374 
L 82.368149 64.935973 
L 79.506611 64.935466 
L 76.645072 64.934948 
L 73.783534 64.934419 
L 70.921995 64.933878 
L 68.060457 64.933325 
L 65.198918 64.93276 
L 62.33738 64.932184 
L 61.770739 64.932068 
L 59.475841 64.931569 
L 56.614303 64.930935 
L 53.752764 64.930289 
L 50.891226 64.929631 
L 48.029687 64.92896 
" style="fill:none;stroke:#2c728e;stroke-width:1.5;"/>
   </g>
   <g id="LineCollection_5">
    <path clip-path="url(#p885b00532f)" d="M 231.168149 64.959662 
L 228.306611 64.959736 
L 225.445072 64.959802 
L 222.583534 64.959859 
L 219.721995 64.959908 
L 216.860457 64.959947 
L 213.998918 64.959978 
L 211.13738 64.96 
L 208.275841 64.960013 
L 205.414303 64.960018 
L 202.552764 64.960013 
L 199.691226 64.96 
L 196.829687 64.959978 
L 193.968149 64.959947 
L 191.106611 64.959908 
L 188.245072 64.959859 
L 185.383534 64.959802 
L 182.521995 64.959736 
L 179.660457 64.959662 
L 176.798918 64.959578 
L 173.93738 64.959486 
L 171.075841 64.959385 
L 168.214303 64.959275 
L 165.352764 64.959156 
L 162.491226 64.959029 
L 159.629687 64.958893 
L 156.768149 64.958748 
L 153.906611 64.958594 
L 151.045072 64.958431 
L 148.183534 64.95826 
L 145.321995 64.95808 
L 142.726646 64.957908 
L 142.460457 64.95789 
L 139.598918 64.957684 
L 136.73738 64.957468 
L 133.875841 64.957244 
L 131.014303 64.95701 
L 128.152764 64.956767 
L 125.291226 64.956515 
L 122.429687 64.956254 
L 119.568149 64.955984 
L 116.706611 64.955704 
L 113.845072 64.955416 
L 110.983534 64.955118 
L 108.121995 64.954811 
L 105.260457 64.954495 
L 102.398918 64.95417 
L 99.53738 64.953835 
L 97.591534 64.953601 
L 96.675841 64.953487 
L 93.814303 64.953118 
L 90.952764 64.95274 
L 88.091226 64.952352 
L 85.229687 64.951955 
L 82.368149 64.951549 
L 79.506611 64.951132 
L 76.645072 64.950706 
L 73.783534 64.950271 
L 70.921995 64.949826 
L 68.060457 64.949371 
L 67.58845 64.949295 
L 65.198918 64.948889 
L 62.33738 64.948393 
L 59.475841 64.947887 
L 56.614303 64.947372 
L 53.752764 64.946846 
L 50.891226 64.94631 
L 48.029687 64.945764 
" style="fill:none;stroke:#21918c;stroke-width:1.5;"/>
   </g>
   <g id="LineCollection_6">
    <path clip-path="url(#p885b00532f)" d="M 231.168149 64.972156 
L 228.306611 64.972222 
L 225.445072 64.972281 
L 222.583534 64.972332 
L 219.721995 64.972375 
L 216.860457 64.97241 
L 213.998918 64.972438 
L 211.13738 64.972457 
L 208.275841 64.972469 
L 205.414303 64.972473 
L 202.552764 64.972469 
L 199.691226 64.972457 
L 196.829687 64.972438 
L 193.968149 64.97241 
L 191.106611 64.972375 
L 188.245072 64.972332 
L 185.383534 64.972281 
L 182.521995 64.972222 
L 179.660457 64.972156 
L 176.798918 64.972081 
L 173.93738 64.971999 
L 171.075841 64.971909 
L 168.214303 64.971811 
L 165.352764 64.971706 
L 162.491226 64.971592 
L 159.629687 64.971471 
L 156.768149 64.971341 
L 153.906611 64.971204 
L 151.045072 64.97106 
L 148.183534 64.970907 
L 146.787661 64.970829 
L 145.321995 64.970743 
L 142.460457 64.970569 
L 139.598918 64.970386 
L 136.73738 64.970195 
L 133.875841 64.969996 
L 131.014303 64.969788 
L 128.152764 64.969573 
L 125.291226 64.96935 
L 122.429687 64.969118 
L 119.568149 64.968878 
L 116.706611 64.96863 
L 113.845072 64.968375 
L 110.983534 64.96811 
L 108.121995 64.967838 
L 105.260457 64.967558 
L 102.398918 64.967269 
L 99.53738 64.966973 
L 96.675841 64.966668 
L 95.337979 64.966522 
L 93.814303 64.966349 
L 90.952764 64.966015 
L 88.091226 64.965673 
L 85.229687 64.965323 
L 82.368149 64.964964 
L 79.506611 64.964596 
L 76.645072 64.964221 
L 73.783534 64.963836 
L 70.921995 64.963444 
L 68.060457 64.963043 
L 65.198918 64.962633 
L 62.33738 64.962215 
L 62.33738 64.962215 
L 59.475841 64.961771 
L 56.614303 64.961318 
L 53.752764 64.960857 
L 50.891226 64.960387 
L 48.029687 64.959908 
" style="fill:none;stroke:#28ae80;stroke-width:1.5;"/>
   </g>
   <g id="LineCollection_7">
    <path clip-path="url(#p885b00532f)" d="M 205.414303 64.983749 
L 202.552764 64.983745 
L 199.691226 64.983734 
L 196.829687 64.983716 
L 193.968149 64.983691 
L 191.106611 64.983658 
L 188.245072 64.983618 
L 185.383534 64.98357 
L 182.521995 64.983515 
L 179.660457 64.983453 
L 176.798918 64.983384 
L 173.93738 64.983307 
L 171.075841 64.983223 
L 168.214303 64.983132 
L 165.352764 64.983034 
L 162.491226 64.982928 
L 159.629687 64.982815 
L 156.768149 64.982694 
L 153.906611 64.982566 
L 151.045072 64.982431 
L 148.183534 64.982289 
L 145.321995 64.982139 
L 142.460457 64.981982 
L 139.598918 64.981818 
L 136.73738 64.981647 
L 133.875841 64.981468 
L 131.014303 64.981282 
L 128.152764 64.981088 
L 125.291226 64.980887 
L 122.429687 64.980679 
L 119.568149 64.980464 
L 116.706611 64.980241 
L 113.845072 64.980011 
L 110.983534 64.979774 
L 108.121995 64.97953 
L 107.126677 64.979442 
L 105.260457 64.979272 
L 102.398918 64.979004 
L 99.53738 64.978728 
L 96.675841 64.978445 
L 93.814303 64.978154 
L 90.952764 64.977855 
L 88.091226 64.977549 
L 85.229687 64.977236 
L 82.368149 64.976915 
L 79.506611 64.976586 
L 76.645072 64.97625 
L 73.783534 64.975906 
L 70.921995 64.975555 
L 68.060457 64.975196 
L 67.58845 64.975135 
L 65.198918 64.974818 
L 62.33738 64.974431 
L 59.475841 64.974035 
L 56.614303 64.973632 
L 53.752764 64.973221 
L 50.891226 64.972802 
L 48.029687 64.972375 
" style="fill:none;stroke:#5ec962;stroke-width:1.5;"/>
    <path clip-path="url(#p885b00532f)" d="M 231.168149 64.983453 
L 228.306611 64.983515 
L 225.445072 64.98357 
L 222.583534 64.983618 
L 219.721995 64.983658 
L 216.860457 64.983691 
L 213.998918 64.983716 
L 211.13738 64.983734 
L 208.275841 64.983745 
L 205.414303 64.983749 
" style="fill:none;stroke:#5ec962;stroke-width:1.5;"/>
   </g>
   <g id="LineCollection_8">
    <path clip-path="url(#p885b00532f)" d="M 48.686004 64.983749 
L 48.029687 64.983658 
" style="fill:none;stroke:#addc30;stroke-width:1.5;"/>
   </g>
   <g id="LineCollection_9"/>
   <g id="line2d_7">
    <path clip-path="url(#p885b00532f)" d="M 62.33738 64.940681 
L 234.029688 64.733956 
L 199.691226 65.023371 
L 206.558918 64.618189 
L 205.18538 65.185444 
L 205.460088 64.391287 
L 205.405146 65.503107 
L 205.416134 63.94656 
L 205.413937 66.125726 
L 205.414376 63.074893 
L 205.414288 67.346059 
L 205.414306 61.366427 
L 205.414302 69.737912 
L 205.414303 58.017833 
L 205.414303 74.425943 
L 205.414303 51.454589 
L 205.414303 83.614484 
L 205.414303 38.590631 
L 205.414303 101.624026 
L 205.414303 13.377273 
L 205.414303 136.922727 
" style="fill:none;stroke:#ffa500;stroke-linecap:square;stroke-width:1.5;"/>
    <defs>
     <path d="M 0 3 
C 0.795609 3 1.55874 2.683901 2.12132 2.12132 
C 2.683901 1.55874 3 0.795609 3 0 
C 3 -0.795609 2.683901 -1.55874 2.12132 -2.12132 
C 1.55874 -2.683901 0.795609 -3 0 -3 
C -0.795609 -3 -1.55874 -2.683901 -2.12132 -2.12132 
C -2.683901 -1.55874 -3 -0.795609 -3 0 
C -3 0.795609 -2.683901 1.55874 -2.12132 2.12132 
C -1.55874 2.683901 -0.795609 3 0 3 
z
" id="ma47e7ac188" style="stroke:#ffa500;"/>
    </defs>
    <g clip-path="url(#p885b00532f)">
     <use style="fill:#ffa500;stroke:#ffa500;" x="62.33738" xlink:href="#ma47e7ac188" y="64.940681"/>
     <use style="fill:#ffa500;stroke:#ffa500;" x="234.029688" xlink:href="#ma47e7ac188" y="64.733956"/>
     <use style="fill:#ffa500;stroke:#ffa500;" x="199.691226" xlink:href="#ma47e7ac188" y="65.023371"/>
     <use style="fill:#ffa500;stroke:#ffa500;" x="206.558918" xlink:href="#ma47e7ac188" y="64.618189"/>
     <use style="fill:#ffa500;stroke:#ffa500;" x="205.18538" xlink:href="#ma47e7ac188" y="65.185444"/>
     <use style="fill:#ffa500;stroke:#ffa500;" x="205.460088" xlink:href="#ma47e7ac188" y="64.391287"/>
     <use style="fill:#ffa500;stroke:#ffa500;" x="205.405146" xlink:href="#ma47e7ac188" y="65.503107"/>
     <use style="fill:#ffa500;stroke:#ffa500;" x="205.416134" xlink:href="#ma47e7ac188" y="63.94656"/>
     <use style="fill:#ffa500;stroke:#ffa500;" x="205.413937" xlink:href="#ma47e7ac188" y="66.125726"/>
     <use style="fill:#ffa500;stroke:#ffa500;" x="205.414376" xlink:href="#ma47e7ac188" y="63.074893"/>
     <use style="fill:#ffa500;stroke:#ffa500;" x="205.414288" xlink:href="#ma47e7ac188" y="67.346059"/>
     <use style="fill:#ffa500;stroke:#ffa500;" x="205.414306" xlink:href="#ma47e7ac188" y="61.366427"/>
     <use style="fill:#ffa500;stroke:#ffa500;" x="205.414302" xlink:href="#ma47e7ac188" y="69.737912"/>
     <use style="fill:#ffa500;stroke:#ffa500;" x="205.414303" xlink:href="#ma47e7ac188" y="58.017833"/>
     <use style="fill:#ffa500;stroke:#ffa500;" x="205.414303" xlink:href="#ma47e7ac188" y="74.425943"/>
     <use style="fill:#ffa500;stroke:#ffa500;" x="205.414303" xlink:href="#ma47e7ac188" y="51.454589"/>
     <use style="fill:#ffa500;stroke:#ffa500;" x="205.414303" xlink:href="#ma47e7ac188" y="83.614484"/>
     <use style="fill:#ffa500;stroke:#ffa500;" x="205.414303" xlink:href="#ma47e7ac188" y="38.590631"/>
     <use style="fill:#ffa500;stroke:#ffa500;" x="205.414303" xlink:href="#ma47e7ac188" y="101.624026"/>
     <use style="fill:#ffa500;stroke:#ffa500;" x="205.414303" xlink:href="#ma47e7ac188" y="13.377273"/>
     <use style="fill:#ffa500;stroke:#ffa500;" x="205.414303" xlink:href="#ma47e7ac188" y="136.922727"/>
    </g>
   </g>
   <g id="patch_3">
    <path d="M 48.029688 143.1 
L 48.029688 7.2 
" style="fill:none;stroke:#000000;stroke-linecap:square;stroke-linejoin:miter;stroke-width:0.8;"/>
   </g>
   <g id="patch_4">
    <path d="M 243.329688 143.1 
L 243.329688 7.2 
" style="fill:none;stroke:#000000;stroke-linecap:square;stroke-linejoin:miter;stroke-width:0.8;"/>
   </g>
   <g id="patch_5">
    <path d="M 48.029687 143.1 
L 243.329688 143.1 
" style="fill:none;stroke:#000000;stroke-linecap:square;stroke-linejoin:miter;stroke-width:0.8;"/>
   </g>
   <g id="patch_6">
    <path d="M 48.029687 7.2 
L 243.329688 7.2 
" style="fill:none;stroke:#000000;stroke-linecap:square;stroke-linejoin:miter;stroke-width:0.8;"/>
   </g>
  </g>
 </g>
 <defs>
  <clipPath id="p885b00532f">
   <rect height="135.9" width="195.3" x="48.029688" y="7.2"/>
  </clipPath>
 </defs>
</svg>
