<?xml version="1.0" encoding="utf-8" standalone="no"?>
<!DOCTYPE svg PUBLIC "-//W3C//DTD SVG 1.1//EN"
  "http://www.w3.org/Graphics/SVG/1.1/DTD/svg11.dtd">
<!-- Created with matplotlib (https://matplotlib.org/) -->
<svg height="180.65625pt" version="1.1" viewBox="0 0 231.442188 180.65625" width="231.442188pt" xmlns="http://www.w3.org/2000/svg" xmlns:xlink="http://www.w3.org/1999/xlink">
 <metadata>
  <rdf:RDF xmlns:cc="http://creativecommons.org/ns#" xmlns:dc="http://purl.org/dc/elements/1.1/" xmlns:rdf="http://www.w3.org/1999/02/22-rdf-syntax-ns#">
   <cc:Work>
    <dc:type rdf:resource="http://purl.org/dc/dcmitype/StillImage"/>
    <dc:date>2021-07-13T18:54:38.548027</dc:date>
    <dc:format>image/svg+xml</dc:format>
    <dc:creator>
     <cc:Agent>
      <dc:title>Matplotlib v3.3.2, https://matplotlib.org/</dc:title>
     </cc:Agent>
    </dc:creator>
   </cc:Work>
  </rdf:RDF>
 </metadata>
 <defs>
  <style type="text/css">*{stroke-linecap:butt;stroke-linejoin:round;}</style>
 </defs>
 <g id="figure_1">
  <g id="patch_1">
   <path d="M 0 180.65625 
L 231.442188 180.65625 
L 231.442188 0 
L 0 0 
z
" style="fill:none;"/>
  </g>
  <g id="axes_1">
   <g id="patch_2">
    <path d="M 28.942188 143.1 
L 224.242188 143.1 
L 224.242188 7.2 
L 28.942188 7.2 
z
" style="fill:#ffffff;"/>
   </g>
   <g id="matplotlib.axis_1">
    <g id="xtick_1">
     <g id="line2d_1">
      <defs>
       <path d="M 0 0 
L 0 3.5 
" id="m1875965ba3" style="stroke:#000000;stroke-width:0.8;"/>
      </defs>
      <g>
       <use style="stroke:#000000;stroke-width:0.8;" x="74.715625" xlink:href="#m1875965ba3" y="143.1"/>
      </g>
     </g>
     <g id="text_1">
      <!-- −4 -->
      <g transform="translate(67.344531 157.698438)scale(0.1 -0.1)">
       <defs>
        <path d="M 10.59375 35.5 
L 73.1875 35.5 
L 73.1875 27.203125 
L 10.59375 27.203125 
z
" id="DejaVuSans-8722"/>
        <path d="M 37.796875 64.3125 
L 12.890625 25.390625 
L 37.796875 25.390625 
z
M 35.203125 72.90625 
L 47.609375 72.90625 
L 47.609375 25.390625 
L 58.015625 25.390625 
L 58.015625 17.1875 
L 47.609375 17.1875 
L 47.609375 0 
L 37.796875 0 
L 37.796875 17.1875 
L 4.890625 17.1875 
L 4.890625 26.703125 
z
" id="DejaVuSans-52"/>
       </defs>
       <use xlink:href="#DejaVuSans-8722"/>
       <use x="83.789062" xlink:href="#DejaVuSans-52"/>
      </g>
     </g>
    </g>
    <g id="xtick_2">
     <g id="line2d_2">
      <g>
       <use style="stroke:#000000;stroke-width:0.8;" x="135.746875" xlink:href="#m1875965ba3" y="143.1"/>
      </g>
     </g>
     <g id="text_2">
      <!-- −2 -->
      <g transform="translate(128.375781 157.698438)scale(0.1 -0.1)">
       <defs>
        <path d="M 19.1875 8.296875 
L 53.609375 8.296875 
L 53.609375 0 
L 7.328125 0 
L 7.328125 8.296875 
Q 12.9375 14.109375 22.625 23.890625 
Q 32.328125 33.6875 34.8125 36.53125 
Q 39.546875 41.84375 41.421875 45.53125 
Q 43.3125 49.21875 43.3125 52.78125 
Q 43.3125 58.59375 39.234375 62.25 
Q 35.15625 65.921875 28.609375 65.921875 
Q 23.96875 65.921875 18.8125 64.3125 
Q 13.671875 62.703125 7.8125 59.421875 
L 7.8125 69.390625 
Q 13.765625 71.78125 18.9375 73 
Q 24.125 74.21875 28.421875 74.21875 
Q 39.75 74.21875 46.484375 68.546875 
Q 53.21875 62.890625 53.21875 53.421875 
Q 53.21875 48.921875 51.53125 44.890625 
Q 49.859375 40.875 45.40625 35.40625 
Q 44.1875 33.984375 37.640625 27.21875 
Q 31.109375 20.453125 19.1875 8.296875 
z
" id="DejaVuSans-50"/>
       </defs>
       <use xlink:href="#DejaVuSans-8722"/>
       <use x="83.789062" xlink:href="#DejaVuSans-50"/>
      </g>
     </g>
    </g>
    <g id="xtick_3">
     <g id="line2d_3">
      <g>
       <use style="stroke:#000000;stroke-width:0.8;" x="196.778125" xlink:href="#m1875965ba3" y="143.1"/>
      </g>
     </g>
     <g id="text_3">
      <!-- 0 -->
      <g transform="translate(193.596875 157.698438)scale(0.1 -0.1)">
       <defs>
        <path d="M 31.78125 66.40625 
Q 24.171875 66.40625 20.328125 58.90625 
Q 16.5 51.421875 16.5 36.375 
Q 16.5 21.390625 20.328125 13.890625 
Q 24.171875 6.390625 31.78125 6.390625 
Q 39.453125 6.390625 43.28125 13.890625 
Q 47.125 21.390625 47.125 36.375 
Q 47.125 51.421875 43.28125 58.90625 
Q 39.453125 66.40625 31.78125 66.40625 
z
M 31.78125 74.21875 
Q 44.046875 74.21875 50.515625 64.515625 
Q 56.984375 54.828125 56.984375 36.375 
Q 56.984375 17.96875 50.515625 8.265625 
Q 44.046875 -1.421875 31.78125 -1.421875 
Q 19.53125 -1.421875 13.0625 8.265625 
Q 6.59375 17.96875 6.59375 36.375 
Q 6.59375 54.828125 13.0625 64.515625 
Q 19.53125 74.21875 31.78125 74.21875 
z
" id="DejaVuSans-48"/>
       </defs>
       <use xlink:href="#DejaVuSans-48"/>
      </g>
     </g>
    </g>
    <g id="text_4">
     <!-- x2 -->
     <g transform="translate(120.451563 171.376563)scale(0.1 -0.1)">
      <defs>
       <path d="M 54.890625 54.6875 
L 35.109375 28.078125 
L 55.90625 0 
L 45.3125 0 
L 29.390625 21.484375 
L 13.484375 0 
L 2.875 0 
L 24.125 28.609375 
L 4.6875 54.6875 
L 15.28125 54.6875 
L 29.78125 35.203125 
L 44.28125 54.6875 
z
" id="DejaVuSans-120"/>
      </defs>
      <use xlink:href="#DejaVuSans-120"/>
      <use x="59.179688" xlink:href="#DejaVuSans-50"/>
     </g>
    </g>
   </g>
   <g id="matplotlib.axis_2">
    <g id="ytick_1">
     <g id="line2d_4">
      <defs>
       <path d="M 0 0 
L -3.5 0 
" id="mb8e8c5ef68" style="stroke:#000000;stroke-width:0.8;"/>
      </defs>
      <g>
       <use style="stroke:#000000;stroke-width:0.8;" x="28.942188" xlink:href="#mb8e8c5ef68" y="143.1"/>
      </g>
     </g>
     <g id="text_5">
      <!-- −3 -->
      <g transform="translate(7.2 146.899219)scale(0.1 -0.1)">
       <defs>
        <path d="M 40.578125 39.3125 
Q 47.65625 37.796875 51.625 33 
Q 55.609375 28.21875 55.609375 21.1875 
Q 55.609375 10.40625 48.1875 4.484375 
Q 40.765625 -1.421875 27.09375 -1.421875 
Q 22.515625 -1.421875 17.65625 -0.515625 
Q 12.796875 0.390625 7.625 2.203125 
L 7.625 11.71875 
Q 11.71875 9.328125 16.59375 8.109375 
Q 21.484375 6.890625 26.8125 6.890625 
Q 36.078125 6.890625 40.9375 10.546875 
Q 45.796875 14.203125 45.796875 21.1875 
Q 45.796875 27.640625 41.28125 31.265625 
Q 36.765625 34.90625 28.71875 34.90625 
L 20.21875 34.90625 
L 20.21875 43.015625 
L 29.109375 43.015625 
Q 36.375 43.015625 40.234375 45.921875 
Q 44.09375 48.828125 44.09375 54.296875 
Q 44.09375 59.90625 40.109375 62.90625 
Q 36.140625 65.921875 28.71875 65.921875 
Q 24.65625 65.921875 20.015625 65.03125 
Q 15.375 64.15625 9.8125 62.3125 
L 9.8125 71.09375 
Q 15.4375 72.65625 20.34375 73.4375 
Q 25.25 74.21875 29.59375 74.21875 
Q 40.828125 74.21875 47.359375 69.109375 
Q 53.90625 64.015625 53.90625 55.328125 
Q 53.90625 49.265625 50.4375 45.09375 
Q 46.96875 40.921875 40.578125 39.3125 
z
" id="DejaVuSans-51"/>
       </defs>
       <use xlink:href="#DejaVuSans-8722"/>
       <use x="83.789062" xlink:href="#DejaVuSans-51"/>
      </g>
     </g>
    </g>
    <g id="ytick_2">
     <g id="line2d_5">
      <g>
       <use style="stroke:#000000;stroke-width:0.8;" x="28.942188" xlink:href="#mb8e8c5ef68" y="108.253846"/>
      </g>
     </g>
     <g id="text_6">
      <!-- −2 -->
      <g transform="translate(7.2 112.053065)scale(0.1 -0.1)">
       <use xlink:href="#DejaVuSans-8722"/>
       <use x="83.789062" xlink:href="#DejaVuSans-50"/>
      </g>
     </g>
    </g>
    <g id="ytick_3">
     <g id="line2d_6">
      <g>
       <use style="stroke:#000000;stroke-width:0.8;" x="28.942188" xlink:href="#mb8e8c5ef68" y="73.407692"/>
      </g>
     </g>
     <g id="text_7">
      <!-- −1 -->
      <g transform="translate(7.2 77.206911)scale(0.1 -0.1)">
       <defs>
        <path d="M 12.40625 8.296875 
L 28.515625 8.296875 
L 28.515625 63.921875 
L 10.984375 60.40625 
L 10.984375 69.390625 
L 28.421875 72.90625 
L 38.28125 72.90625 
L 38.28125 8.296875 
L 54.390625 8.296875 
L 54.390625 0 
L 12.40625 0 
z
" id="DejaVuSans-49"/>
       </defs>
       <use xlink:href="#DejaVuSans-8722"/>
       <use x="83.789062" xlink:href="#DejaVuSans-49"/>
      </g>
     </g>
    </g>
    <g id="ytick_4">
     <g id="line2d_7">
      <g>
       <use style="stroke:#000000;stroke-width:0.8;" x="28.942188" xlink:href="#mb8e8c5ef68" y="38.561538"/>
      </g>
     </g>
     <g id="text_8">
      <!-- 0 -->
      <g transform="translate(15.579688 42.360757)scale(0.1 -0.1)">
       <use xlink:href="#DejaVuSans-48"/>
      </g>
     </g>
    </g>
   </g>
   <g id="LineCollection_1"/>
   <g id="LineCollection_2">
    <path clip-path="url(#p3260ca960e)" d="M 224.242188 80.648723 
L 221.190625 80.7672 
L 218.139063 80.871738 
L 215.0875 80.962338 
L 212.035938 81.039 
L 208.984375 81.101723 
L 205.932813 81.150508 
L 202.88125 81.185354 
L 199.829688 81.206262 
L 196.778125 81.213231 
L 193.726563 81.206262 
L 190.675 81.185354 
L 187.623438 81.150508 
L 184.571875 81.101723 
L 181.520313 81.039 
L 178.46875 80.962338 
L 175.417188 80.871738 
L 172.365625 80.7672 
L 169.314063 80.648723 
L 166.2625 80.516308 
L 163.35625 80.376923 
L 163.210938 80.369348 
L 160.159375 80.195117 
L 157.107813 80.005736 
L 154.05625 79.801204 
L 151.004688 79.581522 
L 147.953125 79.346689 
L 144.901563 79.096706 
L 141.85 78.831572 
L 138.798438 78.551288 
L 135.746875 78.255853 
L 132.695312 77.945268 
L 129.64375 77.619532 
L 126.592188 77.278645 
L 123.540625 76.922609 
L 123.291518 76.892308 
L 120.489063 76.518956 
L 117.4375 76.095824 
L 114.385938 75.656099 
L 111.334375 75.19978 
L 108.282813 74.726868 
L 105.23125 74.237363 
L 102.179688 73.731264 
L 100.290625 73.407692 
L 99.128125 73.187611 
L 96.076563 72.591559 
L 93.025 71.977166 
L 89.973438 71.344433 
L 86.921875 70.69336 
L 83.870313 70.023947 
L 83.42275 69.923077 
L 80.81875 69.267149 
L 77.767188 68.477986 
L 74.715625 67.668326 
L 71.664063 66.838167 
L 70.230196 66.438462 
L 68.6125 65.927385 
L 65.560938 64.940077 
L 62.509375 63.929538 
L 59.629249 62.953846 
L 59.457813 62.886834 
L 56.40625 61.667219 
L 53.354688 60.420799 
L 51.074046 59.469231 
L 50.303125 59.089091 
L 47.251563 57.552692 
L 44.2 55.984615 
L 44.2 55.984615 
L 41.148438 54.029359 
L 38.807919 52.5 
L 38.096875 51.902637 
L 35.045312 49.289176 
L 34.7316 49.015385 
L 31.99375 45.670154 
L 31.881766 45.530769 
L 30.202007 42.046154 
L 29.642087 38.561538 
L 30.202007 35.076923 
L 31.881766 31.592308 
L 31.99375 31.452923 
L 34.7316 28.107692 
L 35.045312 27.833901 
L 38.096875 25.22044 
L 38.807919 24.623077 
L 41.148438 23.093718 
L 44.2 21.138462 
L 44.2 21.138462 
L 47.251563 19.570385 
L 50.303125 18.033986 
L 51.074046 17.653846 
L 53.354688 16.702278 
L 56.40625 15.455858 
L 59.457813 14.236243 
L 59.629249 14.169231 
L 62.509375 13.193538 
L 65.560938 12.183 
L 68.6125 11.195692 
L 70.230196 10.684615 
L 71.664063 10.28491 
L 74.715625 9.454751 
L 77.767188 8.64509 
L 80.81875 7.855928 
L 83.42275 7.2 
" style="fill:none;stroke:#472d7b;stroke-width:1.5;"/>
   </g>
   <g id="LineCollection_3">
    <path clip-path="url(#p3260ca960e)" d="M 224.242188 98.491945 
L 221.190625 98.576571 
L 218.139063 98.651242 
L 215.0875 98.715956 
L 212.035938 98.770714 
L 208.984375 98.815516 
L 205.932813 98.850363 
L 202.88125 98.875253 
L 199.829688 98.890187 
L 196.778125 98.895165 
L 193.726563 98.890187 
L 190.675 98.875253 
L 187.623438 98.850363 
L 184.571875 98.815516 
L 181.520313 98.770714 
L 178.46875 98.715956 
L 175.417188 98.651242 
L 172.365625 98.576571 
L 169.314063 98.491945 
L 166.2625 98.397363 
L 163.210938 98.292824 
L 160.159375 98.17833 
L 157.107813 98.053879 
L 154.05625 97.919473 
L 151.530819 97.8 
L 151.004688 97.773601 
L 147.953125 97.60993 
L 144.901563 97.435699 
L 141.85 97.250909 
L 138.798438 97.055559 
L 135.746875 96.84965 
L 132.695312 96.633182 
L 129.64375 96.406154 
L 126.592188 96.168566 
L 123.540625 95.92042 
L 120.489063 95.661713 
L 117.4375 95.392448 
L 114.385938 95.112622 
L 111.334375 94.822238 
L 108.282813 94.521294 
L 106.265678 94.315385 
L 105.23125 94.202978 
L 102.179688 93.860136 
L 99.128125 93.506055 
L 96.076563 93.140732 
L 93.025 92.764169 
L 89.973438 92.376365 
L 86.921875 91.97732 
L 83.870313 91.567035 
L 80.81875 91.145509 
L 78.599432 90.830769 
L 77.767188 90.704602 
L 74.715625 90.229973 
L 71.664063 89.743329 
L 68.6125 89.244668 
L 65.560938 88.733992 
L 62.509375 88.2113 
L 59.457813 87.676592 
L 57.613462 87.346154 
L 56.40625 87.113846 
L 53.354688 86.513718 
L 50.303125 85.900684 
L 47.251563 85.274744 
L 44.2 84.635897 
L 41.148438 83.984145 
L 40.585528 83.861538 
L 38.096875 83.276123 
L 35.045312 82.544354 
L 31.99375 81.798646 
L 28.942188 81.039 
" style="fill:none;stroke:#3b528b;stroke-width:1.5;"/>
   </g>
   <g id="LineCollection_4">
    <path clip-path="url(#p3260ca960e)" d="M 224.242188 112.139597 
L 221.190625 112.208479 
L 218.139063 112.269258 
L 215.0875 112.321932 
L 212.035938 112.366503 
L 208.984375 112.40297 
L 205.932813 112.431333 
L 202.88125 112.451592 
L 199.829688 112.463748 
L 196.778125 112.4678 
L 193.726563 112.463748 
L 190.675 112.451592 
L 187.623438 112.431333 
L 184.571875 112.40297 
L 181.520313 112.366503 
L 178.46875 112.321932 
L 175.417188 112.269258 
L 172.365625 112.208479 
L 169.314063 112.139597 
L 166.2625 112.062612 
L 163.210938 111.977522 
L 160.159375 111.884329 
L 157.107813 111.783032 
L 155.864583 111.738462 
L 154.05625 111.670469 
L 151.004688 111.547233 
L 147.953125 111.415497 
L 144.901563 111.275263 
L 141.85 111.126529 
L 138.798438 110.969296 
L 135.746875 110.803565 
L 132.695312 110.629334 
L 129.64375 110.446604 
L 126.592188 110.255375 
L 123.540625 110.055647 
L 120.489063 109.84742 
L 117.4375 109.630694 
L 114.385938 109.405469 
L 111.334375 109.171745 
L 108.282813 108.929522 
L 105.23125 108.678799 
L 102.179688 108.419578 
L 100.290625 108.253846 
L 99.128125 108.146627 
L 96.076563 107.856243 
L 93.025 107.556923 
L 89.973438 107.248669 
L 86.921875 106.931479 
L 83.870313 106.605355 
L 80.81875 106.270296 
L 77.767188 105.926302 
L 74.715625 105.573373 
L 71.664063 105.211509 
L 68.6125 104.84071 
L 68.038088 104.769231 
L 65.560938 104.444314 
L 62.509375 104.034636 
L 59.457813 103.615541 
L 56.40625 103.187027 
L 53.354688 102.749096 
L 50.303125 102.301746 
L 47.251563 101.844979 
L 44.2 101.378794 
L 43.59573 101.284615 
L 41.148438 100.881396 
L 38.096875 100.368659 
L 35.045312 99.845967 
L 31.99375 99.313319 
L 28.942188 98.770714 
" style="fill:none;stroke:#2c728e;stroke-width:1.5;"/>
   </g>
   <g id="LineCollection_5">
    <path clip-path="url(#p3260ca960e)" d="M 224.242188 123.611044 
L 221.190625 123.671491 
L 218.139063 123.724827 
L 215.0875 123.771052 
L 212.035938 123.810165 
L 208.984375 123.842166 
L 205.932813 123.867057 
L 202.88125 123.884835 
L 199.829688 123.895502 
L 196.778125 123.899058 
L 193.726563 123.895502 
L 190.675 123.884835 
L 187.623438 123.867057 
L 184.571875 123.842166 
L 181.520313 123.810165 
L 178.46875 123.771052 
L 175.417188 123.724827 
L 172.365625 123.671491 
L 169.314063 123.611044 
L 166.2625 123.543485 
L 163.210938 123.468815 
L 160.159375 123.387033 
L 157.107813 123.29814 
L 154.05625 123.202135 
L 151.004688 123.099019 
L 147.953125 122.988791 
L 144.901563 122.871452 
L 141.85 122.747002 
L 138.798438 122.61544 
L 135.746875 122.476766 
L 132.695312 122.330981 
L 129.927616 122.192308 
L 129.64375 122.17748 
L 126.592188 122.010663 
L 123.540625 121.836432 
L 120.489063 121.654787 
L 117.4375 121.465728 
L 114.385938 121.269255 
L 111.334375 121.065368 
L 108.282813 120.854067 
L 105.23125 120.635352 
L 102.179688 120.409223 
L 99.128125 120.175679 
L 96.076563 119.934722 
L 93.025 119.68635 
L 89.973438 119.430565 
L 86.921875 119.167365 
L 83.870313 118.896751 
L 81.79525 118.707692 
L 80.81875 118.614769 
L 77.767187 118.316641 
L 74.715625 118.010769 
L 71.664063 117.697154 
L 68.6125 117.375795 
L 65.560938 117.046692 
L 62.509375 116.709846 
L 59.457813 116.365256 
L 56.40625 116.012923 
L 53.354688 115.652846 
L 50.303125 115.285026 
L 49.799774 115.223077 
L 47.251563 114.894875 
L 44.2 114.493739 
L 41.148438 114.084499 
L 38.096875 113.667156 
L 35.045312 113.241708 
L 31.99375 112.808157 
L 28.942188 112.366503 
" style="fill:none;stroke:#21918c;stroke-width:1.5;"/>
   </g>
   <g id="LineCollection_6">
    <path clip-path="url(#p3260ca960e)" d="M 224.242188 133.720049 
L 221.190625 133.773902 
L 218.139063 133.82142 
L 215.0875 133.862601 
L 212.035938 133.897448 
L 208.984375 133.925958 
L 205.932813 133.948133 
L 202.88125 133.963972 
L 199.829688 133.973476 
L 196.778125 133.976643 
L 193.726563 133.973476 
L 190.675 133.963972 
L 187.623438 133.948133 
L 184.571875 133.925958 
L 181.520313 133.897448 
L 178.46875 133.862601 
L 175.417188 133.82142 
L 172.365625 133.773902 
L 169.314063 133.720049 
L 166.2625 133.65986 
L 163.210938 133.593336 
L 160.159375 133.520476 
L 157.107813 133.44128 
L 154.05625 133.355748 
L 151.004688 133.263881 
L 147.953125 133.165678 
L 144.901563 133.06114 
L 141.85 132.950266 
L 138.798438 132.833056 
L 135.746875 132.70951 
L 134.258308 132.646154 
L 132.695312 132.577119 
L 129.64375 132.435762 
L 126.592188 132.28783 
L 123.540625 132.133324 
L 120.489063 131.972242 
L 117.4375 131.804586 
L 114.385938 131.630356 
L 111.334375 131.44955 
L 108.282813 131.26217 
L 105.23125 131.068215 
L 102.179688 130.867685 
L 99.128125 130.660581 
L 96.076563 130.446901 
L 93.025 130.226647 
L 89.973438 129.999819 
L 86.921875 129.766415 
L 83.870313 129.526437 
L 80.81875 129.279884 
L 79.392045 129.161538 
L 77.767188 129.021471 
L 74.715625 128.751584 
L 71.664063 128.474864 
L 68.6125 128.191312 
L 65.560938 127.900928 
L 62.509375 127.60371 
L 59.457813 127.299661 
L 56.40625 126.988778 
L 53.354688 126.671063 
L 50.303125 126.346516 
L 47.251563 126.015136 
L 44.2 125.676923 
L 44.2 125.676923 
L 41.148438 125.317794 
L 38.096875 124.951554 
L 35.045312 124.578203 
L 31.99375 124.197739 
L 28.942188 123.810165 
" style="fill:none;stroke:#28ae80;stroke-width:1.5;"/>
   </g>
   <g id="LineCollection_7">
    <path clip-path="url(#p3260ca960e)" d="M 196.778125 143.1 
L 193.726563 143.097047 
L 190.675 143.088188 
L 187.623438 143.073422 
L 184.571875 143.052751 
L 181.520313 143.026173 
L 178.46875 142.99369 
L 175.417188 142.9553 
L 172.365625 142.911004 
L 169.314063 142.860802 
L 166.2625 142.804694 
L 163.210938 142.742679 
L 160.159375 142.674759 
L 157.107813 142.600932 
L 154.05625 142.521199 
L 151.004688 142.435561 
L 147.953125 142.344016 
L 144.901563 142.246565 
L 141.85 142.143207 
L 138.798438 142.033944 
L 135.746875 141.918774 
L 132.695312 141.797699 
L 129.64375 141.670717 
L 126.592188 141.537829 
L 123.540625 141.399035 
L 120.489063 141.254335 
L 117.4375 141.103729 
L 114.385938 140.947216 
L 111.334375 140.784798 
L 108.282813 140.616473 
L 105.23125 140.442243 
L 102.179688 140.262106 
L 99.128125 140.076063 
L 96.076563 139.884113 
L 93.025 139.686258 
L 91.963587 139.615385 
L 89.973438 139.477834 
L 86.921875 139.26081 
L 83.870313 139.037672 
L 80.81875 138.808421 
L 77.767188 138.573057 
L 74.715625 138.331579 
L 71.664063 138.083988 
L 68.6125 137.830283 
L 65.560938 137.570466 
L 62.509375 137.304534 
L 59.457813 137.03249 
L 56.40625 136.754332 
L 53.354688 136.470061 
L 50.303125 136.179676 
L 49.799774 136.130769 
L 47.251563 135.874175 
L 44.2 135.560559 
L 41.148438 135.240608 
L 38.096875 134.914322 
L 35.045312 134.581699 
L 31.99375 134.242741 
L 28.942188 133.897448 
" style="fill:none;stroke:#5ec962;stroke-width:1.5;"/>
    <path clip-path="url(#p3260ca960e)" d="M 224.242188 142.860802 
L 221.190625 142.911004 
L 218.139063 142.9553 
L 215.0875 142.99369 
L 212.035938 143.026173 
L 208.984375 143.052751 
L 205.932813 143.073422 
L 202.88125 143.088188 
L 199.829688 143.097047 
L 196.778125 143.1 
" style="fill:none;stroke:#5ec962;stroke-width:1.5;"/>
   </g>
   <g id="LineCollection_8">
    <path clip-path="url(#p3260ca960e)" d="M 29.642087 143.1 
L 28.942188 143.026173 
" style="fill:none;stroke:#addc30;stroke-width:1.5;"/>
   </g>
   <g id="LineCollection_9"/>
   <g id="line2d_8">
    <path clip-path="url(#p3260ca960e)" d="M 44.2 108.253846 
L 82.799359 64.176564 
L 106.679017 48.25316 
L 124.365136 41.967444 
L 138.333008 39.642222 
L 149.690362 38.864648 
L 159.047936 38.63476 
L 166.79085 38.576223 
L 173.187953 38.563848 
L 178.4432 38.561797 
L 182.722125 38.561555 
L 186.166103 38.561539 
L 188.900006 38.561538 
L 191.036098 38.561538 
L 192.67574 38.561538 
L 193.909914 38.561538 
L 194.819218 38.561538 
L 195.473745 38.561538 
L 195.933118 38.561538 
L 196.246797 38.561538 
L 196.4547 38.561538 
" style="fill:none;stroke:#ffa500;stroke-linecap:square;stroke-width:1.5;"/>
    <defs>
     <path d="M 0 3 
C 0.795609 3 1.55874 2.683901 2.12132 2.12132 
C 2.683901 1.55874 3 0.795609 3 0 
C 3 -0.795609 2.683901 -1.55874 2.12132 -2.12132 
C 1.55874 -2.683901 0.795609 -3 0 -3 
C -0.795609 -3 -1.55874 -2.683901 -2.12132 -2.12132 
C -2.683901 -1.55874 -3 -0.795609 -3 0 
C -3 0.795609 -2.683901 1.55874 -2.12132 2.12132 
C -1.55874 2.683901 -0.795609 3 0 3 
z
" id="meaa504ec55" style="stroke:#ffa500;"/>
    </defs>
    <g clip-path="url(#p3260ca960e)">
     <use style="fill:#ffa500;stroke:#ffa500;" x="44.2" xlink:href="#meaa504ec55" y="108.253846"/>
     <use style="fill:#ffa500;stroke:#ffa500;" x="82.799359" xlink:href="#meaa504ec55" y="64.176564"/>
     <use style="fill:#ffa500;stroke:#ffa500;" x="106.679017" xlink:href="#meaa504ec55" y="48.25316"/>
     <use style="fill:#ffa500;stroke:#ffa500;" x="124.365136" xlink:href="#meaa504ec55" y="41.967444"/>
     <use style="fill:#ffa500;stroke:#ffa500;" x="138.333008" xlink:href="#meaa504ec55" y="39.642222"/>
     <use style="fill:#ffa500;stroke:#ffa500;" x="149.690362" xlink:href="#meaa504ec55" y="38.864648"/>
     <use style="fill:#ffa500;stroke:#ffa500;" x="159.047936" xlink:href="#meaa504ec55" y="38.63476"/>
     <use style="fill:#ffa500;stroke:#ffa500;" x="166.79085" xlink:href="#meaa504ec55" y="38.576223"/>
     <use style="fill:#ffa500;stroke:#ffa500;" x="173.187953" xlink:href="#meaa504ec55" y="38.563848"/>
     <use style="fill:#ffa500;stroke:#ffa500;" x="178.4432" xlink:href="#meaa504ec55" y="38.561797"/>
     <use style="fill:#ffa500;stroke:#ffa500;" x="182.722125" xlink:href="#meaa504ec55" y="38.561555"/>
     <use style="fill:#ffa500;stroke:#ffa500;" x="186.166103" xlink:href="#meaa504ec55" y="38.561539"/>
     <use style="fill:#ffa500;stroke:#ffa500;" x="188.900006" xlink:href="#meaa504ec55" y="38.561538"/>
     <use style="fill:#ffa500;stroke:#ffa500;" x="191.036098" xlink:href="#meaa504ec55" y="38.561538"/>
     <use style="fill:#ffa500;stroke:#ffa500;" x="192.67574" xlink:href="#meaa504ec55" y="38.561538"/>
     <use style="fill:#ffa500;stroke:#ffa500;" x="193.909914" xlink:href="#meaa504ec55" y="38.561538"/>
     <use style="fill:#ffa500;stroke:#ffa500;" x="194.819218" xlink:href="#meaa504ec55" y="38.561538"/>
     <use style="fill:#ffa500;stroke:#ffa500;" x="195.473745" xlink:href="#meaa504ec55" y="38.561538"/>
     <use style="fill:#ffa500;stroke:#ffa500;" x="195.933118" xlink:href="#meaa504ec55" y="38.561538"/>
     <use style="fill:#ffa500;stroke:#ffa500;" x="196.246797" xlink:href="#meaa504ec55" y="38.561538"/>
     <use style="fill:#ffa500;stroke:#ffa500;" x="196.4547" xlink:href="#meaa504ec55" y="38.561538"/>
    </g>
   </g>
   <g id="patch_3">
    <path d="M 28.942188 143.1 
L 28.942188 7.2 
" style="fill:none;stroke:#000000;stroke-linecap:square;stroke-linejoin:miter;stroke-width:0.8;"/>
   </g>
   <g id="patch_4">
    <path d="M 224.242188 143.1 
L 224.242188 7.2 
" style="fill:none;stroke:#000000;stroke-linecap:square;stroke-linejoin:miter;stroke-width:0.8;"/>
   </g>
   <g id="patch_5">
    <path d="M 28.942188 143.1 
L 224.242188 143.1 
" style="fill:none;stroke:#000000;stroke-linecap:square;stroke-linejoin:miter;stroke-width:0.8;"/>
   </g>
   <g id="patch_6">
    <path d="M 28.942188 7.2 
L 224.242188 7.2 
" style="fill:none;stroke:#000000;stroke-linecap:square;stroke-linejoin:miter;stroke-width:0.8;"/>
   </g>
  </g>
 </g>
 <defs>
  <clipPath id="p3260ca960e">
   <rect height="135.9" width="195.3" x="28.942188" y="7.2"/>
  </clipPath>
 </defs>
</svg>
